<?xml version="1.0" encoding="UTF-8"?>
<svg id="Layer_1" data-name="Layer 1" xmlns="http://www.w3.org/2000/svg" version="1.1" xmlns:xlink="http://www.w3.org/1999/xlink" viewBox="0 0 50 50">
  <defs>
    <style>
      .cls-1 {
        fill: #222551;
      }

      .cls-1, .cls-2, .cls-3, .cls-4, .cls-5, .cls-6, .cls-7, .cls-8, .cls-9, .cls-10, .cls-11, .cls-12, .cls-13, .cls-14, .cls-15, .cls-16, .cls-17, .cls-18, .cls-19, .cls-20, .cls-21, .cls-22, .cls-23, .cls-24, .cls-25, .cls-26, .cls-27, .cls-28, .cls-29, .cls-30, .cls-31, .cls-32, .cls-33, .cls-34, .cls-35, .cls-36, .cls-37, .cls-38, .cls-39, .cls-40 {
        stroke-width: 0px;
      }

      .cls-1, .cls-2, .cls-6, .cls-9, .cls-13, .cls-41, .cls-30, .cls-42, .cls-34, .cls-37 {
        fill-rule: evenodd;
      }

      .cls-2, .cls-12, .cls-41, .cls-36 {
        fill: #fff;
      }

      .cls-3 {
        fill: url(#linear-gradient-12);
      }

      .cls-4, .cls-12, .cls-17 {
        clip-rule: evenodd;
      }

      .cls-4, .cls-30, .cls-42 {
        fill: #66c3d2;
      }

      .cls-5 {
        fill: url(#linear-gradient-17);
      }

      .cls-6 {
        fill: #223770;
      }

      .cls-43 {
        mask: url(#mask-23);
      }

      .cls-7 {
        fill: url(#linear-gradient-19);
      }

      .cls-8 {
        fill: url(#linear-gradient);
      }

      .cls-44 {
        mask: url(#mask-10);
      }

      .cls-9 {
        fill: #5293cf;
      }

      .cls-10 {
        fill: url(#linear-gradient-21);
      }

      .cls-45 {
        mask: url(#mask-17);
      }

      .cls-11 {
        fill: url(#linear-gradient-6);
      }

      .cls-13 {
        fill: #b4bdbd;
      }

      .cls-46 {
        mask: url(#mask-2);
      }

      .cls-47 {
        clip-path: url(#clippath-2);
      }

      .cls-48 {
        mask: url(#mask-13);
      }

      .cls-14 {
        fill: url(#linear-gradient-15);
      }

      .cls-49 {
        clip-path: url(#clippath-6);
      }

      .cls-15 {
        fill: url(#linear-gradient-11);
      }

      .cls-50 {
        mask: url(#mask-3);
      }

      .cls-16 {
        fill: url(#linear-gradient-5);
      }

      .cls-51 {
        clip-path: url(#clippath-7);
      }

      .cls-52 {
        mask: url(#mask-9);
      }

      .cls-53 {
        clip-path: url(#clippath-1);
      }

      .cls-54 {
        clip-path: url(#clippath-4);
      }

      .cls-55 {
        mask: url(#mask-12);
      }

      .cls-17 {
        fill: none;
      }

      .cls-56 {
        mask: url(#mask-5);
      }

      .cls-18 {
        fill: url(#linear-gradient-13);
      }

      .cls-19 {
        fill: url(#linear-gradient-23);
      }

      .cls-20 {
        fill: url(#linear-gradient-25);
      }

      .cls-21 {
        fill: url(#linear-gradient-16);
      }

      .cls-22 {
        fill: url(#linear-gradient-22);
      }

      .cls-23 {
        fill: url(#linear-gradient-20);
      }

      .cls-57 {
        mask: url(#mask-20);
      }

      .cls-24 {
        fill: url(#linear-gradient-14);
      }

      .cls-25 {
        fill: url(#linear-gradient-2);
      }

      .cls-58 {
        mask: url(#mask-8);
      }

      .cls-26 {
        fill: url(#linear-gradient-7);
      }

      .cls-59 {
        mask: url(#mask-4);
      }

      .cls-27 {
        fill: url(#linear-gradient-3);
      }

      .cls-60 {
        clip-path: url(#clippath);
      }

      .cls-61 {
        mask: url(#mask-19);
      }

      .cls-62 {
        mask: url(#mask-15);
      }

      .cls-28 {
        fill: url(#linear-gradient-9);
      }

      .cls-29 {
        fill: url(#linear-gradient-27);
      }

      .cls-63 {
        mask: url(#mask-6);
      }

      .cls-64 {
        clip-path: url(#clippath-3);
      }

      .cls-65 {
        mask: url(#mask-16);
      }

      .cls-31 {
        fill: url(#linear-gradient-8);
      }

      .cls-32 {
        fill: url(#linear-gradient-24);
      }

      .cls-33 {
        fill: url(#linear-gradient-26);
      }

      .cls-66 {
        mask: url(#mask-18);
      }

      .cls-34 {
        fill: #272b64;
      }

      .cls-35 {
        fill: url(#linear-gradient-18);
      }

      .cls-67 {
        mask: url(#mask-1);
      }

      .cls-68 {
        mask: url(#mask);
      }

      .cls-69 {
        mask: url(#mask-22);
      }

      .cls-70 {
        clip-path: url(#clippath-5);
      }

      .cls-37 {
        fill: #252a5e;
      }

      .cls-71 {
        mask: url(#mask-7);
      }

      .cls-38 {
        fill: url(#linear-gradient-28);
      }

      .cls-39 {
        fill: url(#linear-gradient-10);
      }

      .cls-40 {
        fill: url(#linear-gradient-4);
      }

      .cls-72 {
        mask: url(#mask-14);
      }

      .cls-73 {
        mask: url(#mask-21);
      }

      .cls-74 {
        mask: url(#mask-11);
      }
    </style>
    <clipPath id="clippath">
      <path class="cls-17" d="M348.8,74.1h-6.7v.6l-2.6,1v1.4h11.9v-1.4l-2.6-1v-.6ZM353.2,65.3c.7,0,1.2.5,1.2,1.2s-.5,1.2-1.2,1.2-1.2-.5-1.2-1.2.5-1.2,1.2-1.2ZM323.4,71.8c.4-1.8,1.8-4,4-6.3.6-.7,1.3-1.3,2-2h0c0,0,0,0,0,0h0s0,0,0,0h0s0,0,0,0h0s0,0,0,0h0s0,0,0,0h0s0,0,0,0h0s0,0,0,0h0s0,0,0,0h0c0,0,0,0,0,0h0c0,0,0-.1,0-.1h0s0,0,0,0h0s0,0,0,0h0c0,0,0,0,0,0h0c0,0,0,0,0,0h0s0,0,0,0h0s0,0,0,0h0s0,0,0,0h0s0,0,0,0h0s0,0,0,0h0s0,0,0,0h0s0,0,0,0h0c0,0,0,0,0,0h0c0,0,0,0,0,0h0s0,0,0,0h0s0,0,0,0h0s0,0,0,0h0s0,0,0,0h0s0,0,0,0h0s0,0,0,0h0s0,0,0,0h0c0,0,0,0,0,0h0c0,0,0,0,0,0h0s0,0,0,0h0s0,0,0,0h0s0,0,0,0h0s0,0,0,0h0s0,0,0,0h0s0,0,0,0h0s0,0,0,0h0c0,0,0,0,0,0h0c0,0,0,0,0,0h0s0,0,0,0h0s0,0,0,0h0s0,0,0,0h0s0,0,0,0h0s.2-.2.2-.2h0s0,0,0,0h0c0,0,0,0,0,0h0s0,0,0,0h0c0,0,0,0,0,0h0s0,0,0,0h0c0,0,0,0,0,0h0s0,0,0,0h0s0,0,0,0h0s0,0,0,0h0c.4-.3.8-.6,1.2-.9,0-.2,0-.4,0-.7,0-1.5,1.3-2.8,2.8-2.8s2.8,1.3,2.8,2.8-1.3,2.8-2.8,2.8-1.2-.2-1.6-.5c-2.6,1.8-4.9,3.7-6.7,5.5-.2.2-.4.4-.6.6-2.8,3-4.2,5.5-3.4,6.9h0c.8,1.4,3.7,1.5,7.6.6h0s0,0,0,0h0s0,0,0,0h0s0,0,0,0h0s0,0,0,0h0s0,0,0,0h0s0,0,0,0h0s0,0,0,0h0s0,0,0,0h0s0,0,0,0h0s0,0,0,0h0s0,0,0,0h0s0,0,0,0h0s0,0,0,0h0s0,0,0,0h0s0,0,0,0h0s0,0,0,0h0s0,0,0,0h0s0,0,0,0h0s0,0,0,0h0s0,0,0,0h0s0,0,0,0h0s0,0,0,0h0s0,0,0,0h0s0,0,0,0h0s0,0,0,0h0s0,0,0,0h0s0,0,0,0h0s0,0,0,0h0s0,0,0,0h0s0,0,0,0h0s0,0,0,0h0s0,0,0,0h0s0,0,0,0h0s0,0,0,0h0s0,0,0,0h0s0,0,0,0h0s0,0,0,0h0s0,0,0,0h0s5.5,0,5.5,0h0,17.2c.9,0,1.7-.8,1.7-1.7v-9.6c0,0,.2-.2.3-.3.4-.3.7-.7,1.1-1,0,0,0,0,0,0,1.9-1.9,2.7-3.5,3.2-4.4-.7,1-1.5,2.1-2.6,3.2-.6.7-1.3,1.3-2,2h0c0,0,0,.1,0,.1h0s0,0,0,0h0c0,0,0,0,0,0h0s0,0,0,0h0s0,0,0,0h0s0,0,0,0h0s0,0,0,0h0s0,0,0,0h0c0,0,0,0,0,0h0s0,0,0,0h0s0,0,0,0h0s0,0,0,0h0s0,0,0,0h0s0,0,0,0h0s0,0,0,0h0c0,0,0,0,0,0h0s0,0,0,0h0s0,0,0,0h0s0,0,0,0h0s0,0,0,0h0s0,0,0,0h0c0,0,0,0,0,0h0s0,0,0,0h0s0,0,0,0h0s0,0,0,0h0s0,0,0,0h0s0,0,0,0h0c0,0,0,0,0,0h0s0,0,0,0h0s0,0,0,0h0s0,0,0,0h0s0,0,0,0h0s0,0,0,0h0s0,0,0,0h0c0,0,0,0,0,0h0s0,0,0,0h0s0,0,0,0h0s0,0,0,0h0s0,0,0,0h0s0,0,0,0h0c0,0,0,0,0,0h0s0,0,0,0h0s0,0,0,0h0s0,0,0,0h0s0,0,0,0h0s0,0,0,0h0c0,0,0,0,0,0h0s0,0,0,0h0s0,0,0,0h0s0,0,0,0h0s0,0,0,0h0s0,0,0,0h0c0,0,0,0,0,0h0s0,0,0,0h0c-.5.4-1.1.9-1.7,1.3,0,.2,0,.4,0,.6,0,1.5-1.3,2.8-2.8,2.8s-2.8-1.3-2.8-2.8,1.3-2.8,2.8-2.8,1.2.2,1.6.5c2.7-1.9,5-3.8,6.7-5.6.2-.2.4-.4.6-.6,2.8-3,4.2-5.5,3.4-6.9h0c-.8-1.4-3.7-1.5-7.6-.6-1.3.3-2.7.7-4.1,1.2h-22.7c-.9,0-1.7.8-1.7,1.7v9.6c0,0-.2.2-.3.3-.7.6-1.4,1.3-2.1,2-.7.7-1.4,1.6-2.2,2.6-1.4,2-1.5,3.7-1.5,3.9ZM337.7,57.3c.7,0,1.2.5,1.2,1.2s-.5,1.2-1.2,1.2-1.2-.5-1.2-1.2.5-1.2,1.2-1.2Z"/>
    </clipPath>
    <linearGradient id="linear-gradient" x1="344.9" y1="73.9" x2="344.9" y2="48.6" gradientUnits="userSpaceOnUse">
      <stop offset="0" stop-color="#283489"/>
      <stop offset="1" stop-color="#5293cf"/>
    </linearGradient>
    <clipPath id="clippath-1">
      <path class="cls-17" d="M348.8,74.1h-6.7v.6l-2.6,1v1.4h11.9v-1.4l-2.6-1v-.6ZM350.8,67.9l-9.3,5.4h1.2,0,17.2c.9,0,1.7-.8,1.7-1.7v-9.6c0,0,.2-.2.3-.3.4-.3.7-.7,1.1-1,0,0,0,0,0,0,1.9-1.9,2.7-3.5,3.2-4.4-.7,1-1.5,2.1-2.6,3.2-.6.7-1.3,1.3-2,2h0c0,0,0,.1,0,.1h0s0,0,0,0h0c0,0,0,0,0,0h0s0,0,0,0h0s0,0,0,0h0s0,0,0,0h0s0,0,0,0h0s0,0,0,0h0c0,0,0,0,0,0h0s0,0,0,0h0s0,0,0,0h0s0,0,0,0h0s0,0,0,0h0s0,0,0,0h0s0,0,0,0h0c0,0,0,0,0,0h0s0,0,0,0h0s0,0,0,0h0s0,0,0,0h0s0,0,0,0h0s0,0,0,0h0c0,0,0,0,0,0h0s0,0,0,0h0s0,0,0,0h0s0,0,0,0h0s0,0,0,0h0s0,0,0,0h0c0,0,0,0,0,0h0s0,0,0,0h0s0,0,0,0h0s0,0,0,0h0s0,0,0,0h0s0,0,0,0h0s0,0,0,0h0c0,0,0,0,0,0h0s0,0,0,0h0s0,0,0,0h0s0,0,0,0h0s0,0,0,0h0s0,0,0,0h0c0,0,0,0,0,0h0s0,0,0,0h0s0,0,0,0h0s0,0,0,0h0s0,0,0,0h0s0,0,0,0h0c0,0,0,0,0,0h0s0,0,0,0h0s0,0,0,0h0s0,0,0,0h0s0,0,0,0h0s0,0,0,0h0c0,0,0,0,0,0h0s0,0,0,0h0c-.5.4-1.1.9-1.7,1.3,0,.2,0,.4,0,.6,0,1.5-1.3,2.8-2.8,2.8s-1.9-.6-2.4-1.4ZM353.2,66.5l-1,.6c.2.4.6.6,1,.6.7,0,1.2-.5,1.2-1.2s0-.4-.2-.6l-1,.6Z"/>
    </clipPath>
    <linearGradient id="linear-gradient-2" x1="352.8" y1="77.1" x2="352.8" y2="48.6" gradientUnits="userSpaceOnUse">
      <stop offset="0" stop-color="#292f71"/>
      <stop offset="1" stop-color="#5293cf"/>
    </linearGradient>
    <linearGradient id="linear-gradient-3" x1="271" y1="267.8" x2="266.2" y2="259.5" gradientTransform="translate(87.3 -189.7)" gradientUnits="userSpaceOnUse">
      <stop offset="0" stop-color="#fff"/>
      <stop offset="1" stop-color="#000"/>
    </linearGradient>
    <mask id="mask" x="343.3" y="62.4" width="17.8" height="10.3" maskUnits="userSpaceOnUse">
      <rect class="cls-27" x="343.3" y="62.4" width="17.8" height="10.3"/>
    </mask>
    <clipPath id="clippath-2">
      <path class="cls-17" d="M325.4,73.9l40.1-22.8c-.8-1.3-3.7-1.4-7.6-.6-1.3.3-2.7.7-4.1,1.2h-22.7c-.9,0-1.7.8-1.7,1.7v9.6c0,0-.2.2-.3.3-.7.6-1.4,1.3-2.1,2-.7.7-1.4,1.6-2.2,2.6-1.4,2-1.5,3.7-1.5,3.9.4-1.8,1.8-4,4-6.3.6-.7,1.3-1.3,2-2h0c0,0,0,0,0,0h0s0,0,0,0h0s0,0,0,0h0s0,0,0,0h0s0,0,0,0h0s0,0,0,0h0s0,0,0,0h0s0,0,0,0h0c0,0,0,0,0,0h0c0,0,0-.1,0-.1h0s0,0,0,0h0s0,0,0,0h0c0,0,0,0,0,0h0c0,0,0,0,0,0h0s0,0,0,0h0s0,0,0,0h0s0,0,0,0h0s0,0,0,0h0s0,0,0,0h0s0,0,0,0h0s0,0,0,0h0c0,0,0,0,0,0h0c0,0,0,0,0,0h0s0,0,0,0h0s0,0,0,0h0s0,0,0,0h0s0,0,0,0h0s0,0,0,0h0s0,0,0,0h0s0,0,0,0h0c0,0,0,0,0,0h0c0,0,0,0,0,0h0s0,0,0,0h0s0,0,0,0h0s0,0,0,0h0s0,0,0,0h0s0,0,0,0h0s0,0,0,0h0s0,0,0,0h0c0,0,0,0,0,0h0c0,0,0,0,0,0h0s0,0,0,0h0s0,0,0,0h0s0,0,0,0h0s0,0,0,0h0s.2-.2.2-.2h0s0,0,0,0h0c0,0,0,0,0,0h0s0,0,0,0h0c0,0,0,0,0,0h0s0,0,0,0h0c0,0,0,0,0,0h0s0,0,0,0h0s0,0,0,0h0s0,0,0,0h0c.4-.3.8-.6,1.2-.9,0-.2,0-.4,0-.7,0-1.5,1.3-2.8,2.8-2.8s2.8,1.3,2.8,2.8-1.3,2.8-2.8,2.8-1.2-.2-1.6-.5c-2.6,1.8-4.9,3.7-6.7,5.5-.2.2-.4.4-.6.6-2.8,3-4.2,5.5-3.4,6.9h0ZM337.7,57.3c.7,0,1.2.5,1.2,1.2s-.5,1.2-1.2,1.2-1.2-.5-1.2-1.2.5-1.2,1.2-1.2Z"/>
    </clipPath>
    <linearGradient id="linear-gradient-4" x1="344.5" y1="76.6" x2="344.5" y2="52.5" xlink:href="#linear-gradient"/>
    <clipPath id="clippath-3">
      <path class="cls-17" d="M340.1,57.1l9.4-5.4h-18.4c-.9,0-1.7.8-1.7,1.7v9.6c0,0-.2.2-.3.3-.7.6-1.4,1.3-2.1,2-.7.7-1.4,1.6-2.2,2.6-1.4,2-1.5,3.7-1.5,3.9.4-1.8,1.8-4,4-6.3.6-.7,1.3-1.3,2-2h0c0,0,0,0,0,0h0s0,0,0,0h0s0,0,0,0h0s0,0,0,0h0s0,0,0,0h0s0,0,0,0h0s0,0,0,0h0s0,0,0,0h0c0,0,0,0,0,0h0c0,0,0-.1,0-.1h0s0,0,0,0h0s0,0,0,0h0c0,0,0,0,0,0h0c0,0,0,0,0,0h0s0,0,0,0h0s0,0,0,0h0s0,0,0,0h0s0,0,0,0h0s0,0,0,0h0s0,0,0,0h0s0,0,0,0h0c0,0,0,0,0,0h0c0,0,0,0,0,0h0s0,0,0,0h0s0,0,0,0h0s0,0,0,0h0s0,0,0,0h0s0,0,0,0h0s0,0,0,0h0s0,0,0,0h0c0,0,0,0,0,0h0c0,0,0,0,0,0h0s0,0,0,0h0s0,0,0,0h0s0,0,0,0h0s0,0,0,0h0s0,0,0,0h0s0,0,0,0h0s0,0,0,0h0c0,0,0,0,0,0h0c0,0,0,0,0,0h0s0,0,0,0h0s0,0,0,0h0s0,0,0,0h0s0,0,0,0h0s.2-.2.2-.2h0s0,0,0,0h0c0,0,0,0,0,0h0s0,0,0,0h0c0,0,0,0,0,0h0s0,0,0,0h0c0,0,0,0,0,0h0s0,0,0,0h0s0,0,0,0h0s0,0,0,0h0c.4-.3.8-.6,1.2-.9,0-.2,0-.4,0-.7,0-1.5,1.3-2.8,2.8-2.8s1.9.6,2.4,1.4M337.7,57.3c.4,0,.8.2,1,.6l-1,.6-1,.7c-.1-.2-.2-.4-.2-.7,0-.7.5-1.2,1.2-1.2Z"/>
    </clipPath>
    <linearGradient id="linear-gradient-5" x1="336.5" y1="76.6" x2="336.5" y2="55.4" xlink:href="#linear-gradient"/>
    <linearGradient id="linear-gradient-6" x1="259.9" y1="268.5" x2="267.7" y2="262.9" gradientTransform="translate(67.1 -203.9)" xlink:href="#linear-gradient-3"/>
    <mask id="mask-1" x="329.4" y="58.8" width="5.5" height="4.2" maskUnits="userSpaceOnUse">
      <rect class="cls-11" x="329.4" y="58.8" width="5.5" height="4.2"/>
    </mask>
    <linearGradient id="linear-gradient-7" x1="258.1" y1="259.6" x2="250.2" y2="265.1" gradientTransform="translate(105.7 -199)" xlink:href="#linear-gradient-3"/>
    <mask id="mask-2" x="356" y="61.9" width="5.6" height="4.5" maskUnits="userSpaceOnUse">
      <rect class="cls-26" x="356" y="61.9" width="5.6" height="4.5"/>
    </mask>
    <linearGradient id="linear-gradient-8" x1="273.2" y1="258.4" x2="266.8" y2="262.4" gradientTransform="translate(61.8 -186.5)" xlink:href="#linear-gradient-3"/>
    <mask id="mask-3" x="325.8" y="73.3" width="11.4" height="1.7" maskUnits="userSpaceOnUse">
      <rect class="cls-31" x="325.8" y="73.3" width="11.4" height="1.7"/>
    </mask>
    <linearGradient id="linear-gradient-9" x1="250.2" y1="275.5" x2="258.5" y2="270.4" gradientTransform="translate(102.6 -220.4)" xlink:href="#linear-gradient-3"/>
    <mask id="mask-4" x="353.8" y="49.9" width="11.8" height="1.7" maskUnits="userSpaceOnUse">
      <rect class="cls-28" x="353.8" y="49.9" width="11.8" height="1.7"/>
    </mask>
    <linearGradient id="linear-gradient-10" x1="264.4" y1="250.6" x2="269.7" y2="259.7" gradientTransform="translate(67.9 -204.6)" xlink:href="#linear-gradient-3"/>
    <mask id="mask-5" x="329.9" y="52.2" width="17.8" height="10.3" maskUnits="userSpaceOnUse">
      <rect class="cls-39" x="329.9" y="52.2" width="17.8" height="10.3"/>
    </mask>
    <linearGradient id="linear-gradient-11" x1="253.3" y1="265.3" x2="253.3" y2="269.1" gradientTransform="translate(103.9 -210.8)" xlink:href="#linear-gradient-3"/>
    <mask id="mask-6" x="354.7" y="53.3" width="5" height="5" maskUnits="userSpaceOnUse">
      <rect class="cls-15" x="354.7" y="53.3" width="5" height="5"/>
    </mask>
    <linearGradient id="linear-gradient-12" x1="253.1" y1="266.9" x2="253.1" y2="268.6" gradientTransform="translate(100.1 -209.5)" xlink:href="#linear-gradient-3"/>
    <mask id="mask-7" x="352.1" y="56.9" width="2.3" height="2.3" maskUnits="userSpaceOnUse">
      <rect class="cls-3" x="352.1" y="56.9" width="2.3" height="2.3"/>
    </mask>
    <linearGradient id="linear-gradient-13" x1="257.6" y1="268.4" x2="257.6" y2="258.7" gradientTransform="translate(98 -195.1)" xlink:href="#linear-gradient-3"/>
    <mask id="mask-8" x="350.6" y="61.9" width="9.9" height="7.1" maskUnits="userSpaceOnUse">
      <rect class="cls-18" x="350.6" y="61.9" width="9.9" height="7.1"/>
    </mask>
    <linearGradient id="linear-gradient-14" x1="266.8" y1="255.5" x2="266.8" y2="266.6" gradientTransform="translate(68.6 -203.9)" xlink:href="#linear-gradient-3"/>
    <mask id="mask-9" x="330.4" y="55.9" width="9.8" height="7.1" maskUnits="userSpaceOnUse">
      <rect class="cls-24" x="330.4" y="55.9" width="9.8" height="7.1"/>
    </mask>
    <linearGradient id="linear-gradient-15" x1="271.9" y1="246.6" x2="271.9" y2="261.4" gradientTransform="translate(60.9 -188.1)" xlink:href="#linear-gradient-3"/>
    <mask id="mask-10" x="325.2" y="58.7" width="15.3" height="15.1" maskUnits="userSpaceOnUse">
      <rect class="cls-14" x="325.2" y="58.7" width="15.3" height="15.1"/>
    </mask>
    <linearGradient id="linear-gradient-16" x1="260.7" y1="266.4" x2="260.7" y2="250.2" gradientTransform="translate(97.3 -196.8)" xlink:href="#linear-gradient-3"/>
    <mask id="mask-11" x="350.2" y="51" width="15.6" height="16.8" maskUnits="userSpaceOnUse">
      <rect class="cls-21" x="350.2" y="51" width="15.6" height="16.8"/>
    </mask>
    <clipPath id="clippath-4">
      <path class="cls-12" d="M29.2,35.5h-6.9v.6l-2.7,1v1.4h12.3v-1.4l-2.7-1v-.6ZM33.6,26.8c.7,0,1.2.5,1.2,1.2s-.5,1.2-1.2,1.2-1.2-.5-1.2-1.2.5-1.2,1.2-1.2ZM3,33.2c.5-1.8,1.9-4,4.1-6.2.6-.7,1.3-1.3,2.1-2h0c0,0,0,0,0,0h0s0,0,0,0h0s0,0,0,0h0s0,0,0,0h0s0,0,0,0h0s0,0,0,0h0s0,0,0,0h0s0,0,0,0h0c0,0,0,0,0,0h0c0,0,0-.1,0-.1h0s0,0,0,0h0s0,0,0,0h0c0,0,0,0,0,0h0c0,0,0,0,0,0h0s0,0,0,0h0s0,0,0,0h0s0,0,0,0h0s0,0,0,0h0s0,0,0,0h0s0,0,0,0h0s0,0,0,0h0c0,0,0,0,0,0h0c0,0,0,0,0,0h0s0,0,0,0h0s0,0,0,0h0s0,0,0,0h0s0,0,0,0h0s0,0,0,0h0s0,0,0,0h0s0,0,0,0h0c0,0,0,0,0,0h0c0,0,0,0,0,0h0s0,0,0,0h0s0,0,0,0h0s0,0,0,0h0s0,0,0,0h0s0,0,0,0h0s0,0,0,0h0s0,0,0,0h0c0,0,0,0,0,0h0c0,0,0,0,0,0h0s0,0,0,0h0s0,0,0,0h0s0,0,0,0h0s0,0,0,0h0s.2-.2.2-.2h0s0,0,0,0h0c0,0,0,0,0,0h0s0,0,0,0h0c0,0,0,0,0,0h0s0,0,0,0h0c0,0,0,0,0,0h0s0,0,0,0h0s0,0,0,0h0s0,0,0,0h0c.4-.3.8-.6,1.3-.9,0-.2,0-.4,0-.6,0-1.5,1.3-2.8,2.9-2.8s2.9,1.2,2.9,2.8-1.3,2.8-2.9,2.8-1.2-.2-1.7-.5c-2.7,1.8-5,3.7-6.9,5.5-.2.2-.4.4-.6.6-2.9,3-4.3,5.5-3.5,6.9h0c.9,1.4,3.8,1.5,7.8.6h0s0,0,0,0h0s0,0,0,0h0s0,0,0,0h0s0,0,0,0h0s0,0,0,0h0s0,0,0,0h0s0,0,0,0h0s0,0,0,0h0s0,0,0,0h0s0,0,0,0h0s0,0,0,0h0s0,0,0,0h0s0,0,0,0h0s0,0,0,0h0s0,0,0,0h0s0,0,0,0h0s0,0,0,0h0s0,0,0,0h0s0,0,0,0h0s0,0,0,0h0s0,0,0,0h0s0,0,0,0h0s0,0,0,0h0s0,0,0,0h0s0,0,0,0h0s0,0,0,0h0s0,0,0,0h0s0,0,0,0h0s0,0,0,0h0s0,0,0,0h0s0,0,0,0h0s0,0,0,0h0s0,0,0,0h0s0,0,0,0h0s0,0,0,0h0s0,0,0,0h0s0,0,0,0h0s0,0,0,0h0s5.6,0,5.6,0h0,17.7c1,0,1.8-.8,1.8-1.7v-9.6c0,0,.2-.2.3-.2.4-.3.8-.7,1.1-1,0,0,0,0,0,0,2-1.9,2.8-3.5,3.3-4.4-.7,1-1.6,2.1-2.6,3.2-.6.7-1.3,1.3-2.1,2h0c0,0,0,.1,0,.1h0s0,0,0,0h0c0,0,0,0,0,0h0s0,0,0,0h0s0,0,0,0h0s0,0,0,0h0s0,0,0,0h0s0,0,0,0h0c0,0,0,0,0,0h0s0,0,0,0h0s0,0,0,0h0s0,0,0,0h0s0,0,0,0h0s0,0,0,0h0s0,0,0,0h0c0,0,0,0,0,0h0s0,0,0,0h0s0,0,0,0h0s0,0,0,0h0s0,0,0,0h0s0,0,0,0h0c0,0,0,0,0,0h0s0,0,0,0h0s0,0,0,0h0s0,0,0,0h0s0,0,0,0h0s0,0,0,0h0c0,0,0,0,0,0h0s0,0,0,0h0s0,0,0,0h0s0,0,0,0h0s0,0,0,0h0s0,0,0,0h0s0,0,0,0h0c0,0,0,0,0,0h0s0,0,0,0h0s0,0,0,0h0s0,0,0,0h0s0,0,0,0h0s0,0,0,0h0c0,0,0,0,0,0h0s0,0,0,0h0s0,0,0,0h0s0,0,0,0h0s0,0,0,0h0s0,0,0,0h0c0,0,0,0,0,0h0s0,0,0,0h0s0,0,0,0h0s0,0,0,0h0s0,0,0,0h0s0,0,0,0h0c0,0,0,0,0,0h0s0,0,0,0h0c-.6.4-1.1.8-1.7,1.3,0,.2,0,.4,0,.6,0,1.5-1.3,2.8-2.9,2.8s-2.9-1.2-2.9-2.8,1.3-2.8,2.9-2.8,1.2.2,1.7.5c2.7-1.9,5.1-3.7,6.9-5.5.2-.2.4-.4.6-.6,2.9-3,4.3-5.5,3.5-6.9h0c-.9-1.4-3.8-1.5-7.8-.6-1.3.3-2.8.7-4.3,1.2H11c-1,0-1.8.8-1.8,1.7v9.6c0,0-.2.2-.3.2-.7.6-1.4,1.3-2.1,2-.7.7-1.5,1.6-2.2,2.6-1.4,2-1.5,3.6-1.6,3.9ZM17.7,18.8c.7,0,1.2.5,1.2,1.2s-.5,1.2-1.2,1.2-1.2-.5-1.2-1.2.5-1.2,1.2-1.2Z"/>
    </clipPath>
    <clipPath id="clippath-5">
      <path class="cls-4" d="M29.2,35.5h-6.9v.6l-2.7,1v1.4h12.3v-1.4l-2.7-1v-.6ZM31.2,29.3l-9.6,5.4h1.2,0,17.7c1,0,1.8-.8,1.8-1.7v-9.6c0,0,.2-.2.3-.2.4-.3.8-.7,1.1-1,0,0,0,0,0,0,2-1.9,2.8-3.5,3.3-4.4-.7,1-1.6,2.1-2.6,3.2-.6.7-1.3,1.3-2.1,2h0c0,0,0,.1,0,.1h0s0,0,0,0h0c0,0,0,0,0,0h0s0,0,0,0h0s0,0,0,0h0s0,0,0,0h0s0,0,0,0h0s0,0,0,0h0c0,0,0,0,0,0h0s0,0,0,0h0s0,0,0,0h0s0,0,0,0h0s0,0,0,0h0s0,0,0,0h0s0,0,0,0h0c0,0,0,0,0,0h0s0,0,0,0h0s0,0,0,0h0s0,0,0,0h0s0,0,0,0h0s0,0,0,0h0c0,0,0,0,0,0h0s0,0,0,0h0s0,0,0,0h0s0,0,0,0h0s0,0,0,0h0s0,0,0,0h0c0,0,0,0,0,0h0s0,0,0,0h0s0,0,0,0h0s0,0,0,0h0s0,0,0,0h0s0,0,0,0h0s0,0,0,0h0c0,0,0,0,0,0h0s0,0,0,0h0s0,0,0,0h0s0,0,0,0h0s0,0,0,0h0s0,0,0,0h0c0,0,0,0,0,0h0s0,0,0,0h0s0,0,0,0h0s0,0,0,0h0s0,0,0,0h0s0,0,0,0h0c0,0,0,0,0,0h0s0,0,0,0h0s0,0,0,0h0s0,0,0,0h0s0,0,0,0h0s0,0,0,0h0c0,0,0,0,0,0h0s0,0,0,0h0c-.6.4-1.1.8-1.7,1.3,0,.2,0,.4,0,.6,0,1.5-1.3,2.8-2.9,2.8s-2-.6-2.5-1.4ZM33.6,27.9l-1.1.6c.2.4.6.6,1.1.6.7,0,1.2-.5,1.2-1.2s0-.4-.2-.6l-1.1.6Z"/>
    </clipPath>
    <linearGradient id="linear-gradient-17" x1="-48.5" y1="229.4" x2="-53.4" y2="221" xlink:href="#linear-gradient-3"/>
    <mask id="mask-12" x="23.4" y="23.9" width="18.3" height="10.3" maskUnits="userSpaceOnUse">
      <rect class="cls-5" x="23.4" y="23.9" width="18.3" height="10.3"/>
    </mask>
    <clipPath id="clippath-6">
      <path class="cls-12" d="M5.1,35.3L46.4,12.6c-.9-1.3-3.8-1.4-7.8-.6-1.3.3-2.8.7-4.3,1.2H11c-1,0-1.8.8-1.8,1.7v9.6c0,0-.2.2-.3.2-.7.6-1.4,1.3-2.1,2-.7.7-1.5,1.6-2.2,2.6-1.4,2-1.5,3.6-1.6,3.9.5-1.8,1.9-4,4.1-6.2.6-.7,1.3-1.3,2.1-2h0c0,0,0,0,0,0h0s0,0,0,0h0s0,0,0,0h0s0,0,0,0h0s0,0,0,0h0s0,0,0,0h0s0,0,0,0h0s0,0,0,0h0c0,0,0,0,0,0h0c0,0,0-.1,0-.1h0s0,0,0,0h0s0,0,0,0h0c0,0,0,0,0,0h0c0,0,0,0,0,0h0s0,0,0,0h0s0,0,0,0h0s0,0,0,0h0s0,0,0,0h0s0,0,0,0h0s0,0,0,0h0s0,0,0,0h0c0,0,0,0,0,0h0c0,0,0,0,0,0h0s0,0,0,0h0s0,0,0,0h0s0,0,0,0h0s0,0,0,0h0s0,0,0,0h0s0,0,0,0h0s0,0,0,0h0c0,0,0,0,0,0h0c0,0,0,0,0,0h0s0,0,0,0h0s0,0,0,0h0s0,0,0,0h0s0,0,0,0h0s0,0,0,0h0s0,0,0,0h0s0,0,0,0h0c0,0,0,0,0,0h0c0,0,0,0,0,0h0s0,0,0,0h0s0,0,0,0h0s0,0,0,0h0s0,0,0,0h0s.2-.2.2-.2h0s0,0,0,0h0c0,0,0,0,0,0h0s0,0,0,0h0c0,0,0,0,0,0h0s0,0,0,0h0c0,0,0,0,0,0h0s0,0,0,0h0s0,0,0,0h0s0,0,0,0h0c.4-.3.8-.6,1.3-.9,0-.2,0-.4,0-.6,0-1.5,1.3-2.8,2.9-2.8s2.9,1.2,2.9,2.8-1.3,2.8-2.9,2.8-1.2-.2-1.7-.5c-2.7,1.8-5,3.7-6.9,5.5-.2.2-.4.4-.6.6-2.9,3-4.3,5.5-3.5,6.9h0ZM17.7,18.8c.7,0,1.2.5,1.2,1.2s-.5,1.2-1.2,1.2-1.2-.5-1.2-1.2.5-1.2,1.2-1.2Z"/>
    </clipPath>
    <clipPath id="clippath-7">
      <path class="cls-4" d="M20.2,18.6l9.7-5.4H11c-1,0-1.8.8-1.8,1.7v9.6c0,0-.2.2-.3.2-.7.6-1.4,1.3-2.1,2-.7.7-1.5,1.6-2.2,2.6-1.4,2-1.5,3.6-1.6,3.9.5-1.8,1.9-4,4.1-6.2.6-.7,1.3-1.3,2.1-2h0c0,0,0,0,0,0h0s0,0,0,0h0s0,0,0,0h0s0,0,0,0h0s0,0,0,0h0s0,0,0,0h0s0,0,0,0h0s0,0,0,0h0c0,0,0,0,0,0h0c0,0,0-.1,0-.1h0s0,0,0,0h0s0,0,0,0h0c0,0,0,0,0,0h0c0,0,0,0,0,0h0s0,0,0,0h0s0,0,0,0h0s0,0,0,0h0s0,0,0,0h0s0,0,0,0h0s0,0,0,0h0s0,0,0,0h0c0,0,0,0,0,0h0c0,0,0,0,0,0h0s0,0,0,0h0s0,0,0,0h0s0,0,0,0h0s0,0,0,0h0s0,0,0,0h0s0,0,0,0h0s0,0,0,0h0c0,0,0,0,0,0h0c0,0,0,0,0,0h0s0,0,0,0h0s0,0,0,0h0s0,0,0,0h0s0,0,0,0h0s0,0,0,0h0s0,0,0,0h0s0,0,0,0h0c0,0,0,0,0,0h0c0,0,0,0,0,0h0s0,0,0,0h0s0,0,0,0h0s0,0,0,0h0s0,0,0,0h0s.2-.2.2-.2h0s0,0,0,0h0c0,0,0,0,0,0h0s0,0,0,0h0c0,0,0,0,0,0h0s0,0,0,0h0c0,0,0,0,0,0h0s0,0,0,0h0s0,0,0,0h0s0,0,0,0h0c.4-.3.8-.6,1.3-.9,0-.2,0-.4,0-.6,0-1.5,1.3-2.8,2.9-2.8s2,.6,2.5,1.4M17.7,18.8c.5,0,.8.2,1.1.6l-1.1.6-1,.7c-.1-.2-.2-.4-.2-.7,0-.7.5-1.2,1.2-1.2Z"/>
    </clipPath>
    <linearGradient id="linear-gradient-18" x1="-60.3" y1="230.1" x2="-52.3" y2="224.3" gradientTransform="translate(67.1 -203.9)" xlink:href="#linear-gradient-3"/>
    <mask id="mask-13" x="9.2" y="20.3" width="5.7" height="4.2" maskUnits="userSpaceOnUse">
      <rect class="cls-35" x="9.2" y="20.3" width="5.7" height="4.2"/>
    </mask>
    <linearGradient id="linear-gradient-19" x1="-61.1" y1="221.1" x2="-69.2" y2="226.6" gradientTransform="translate(105.7 -199)" xlink:href="#linear-gradient-3"/>
    <mask id="mask-14" x="36.5" y="23.4" width="5.7" height="4.4" maskUnits="userSpaceOnUse">
      <rect class="cls-7" x="36.5" y="23.4" width="5.7" height="4.4"/>
    </mask>
    <linearGradient id="linear-gradient-20" x1="-46.9" y1="219.8" x2="-53.4" y2="223.9" gradientTransform="translate(61.8 -186.5)" xlink:href="#linear-gradient-3"/>
    <mask id="mask-15" x="5.4" y="34.7" width="11.8" height="1.7" maskUnits="userSpaceOnUse">
      <rect class="cls-23" x="5.4" y="34.7" width="11.8" height="1.7"/>
    </mask>
    <linearGradient id="linear-gradient-21" x1="-69.3" y1="237.1" x2="-60.9" y2="231.9" gradientTransform="translate(102.6 -220.4)" xlink:href="#linear-gradient-3"/>
    <mask id="mask-16" x="34.3" y="11.5" width="12.1" height="1.7" maskUnits="userSpaceOnUse">
      <rect class="cls-10" x="34.3" y="11.5" width="12.1" height="1.7"/>
    </mask>
    <linearGradient id="linear-gradient-22" x1="-55.6" y1="211.9" x2="-50.3" y2="221.2" gradientTransform="translate(67.9 -204.6)" xlink:href="#linear-gradient-3"/>
    <mask id="mask-17" x="9.7" y="13.7" width="18.3" height="10.3" maskUnits="userSpaceOnUse">
      <rect class="cls-22" x="9.7" y="13.7" width="18.3" height="10.3"/>
    </mask>
    <linearGradient id="linear-gradient-23" x1="-66.1" y1="226.8" x2="-66.1" y2="230.6" gradientTransform="translate(103.9 -210.8)" xlink:href="#linear-gradient-3"/>
    <mask id="mask-18" x="35.2" y="14.8" width="5.1" height="5" maskUnits="userSpaceOnUse">
      <rect class="cls-19" x="35.2" y="14.8" width="5.1" height="5"/>
    </mask>
    <linearGradient id="linear-gradient-24" x1="-66.4" y1="228.4" x2="-66.4" y2="230.1" gradientTransform="translate(100.1 -209.5)" xlink:href="#linear-gradient-3"/>
    <mask id="mask-19" x="32.5" y="18.4" width="2.4" height="2.3" maskUnits="userSpaceOnUse">
      <rect class="cls-32" x="32.5" y="18.4" width="2.4" height="2.3"/>
    </mask>
    <linearGradient id="linear-gradient-25" x1="-61.9" y1="229.8" x2="-61.9" y2="220.2" gradientTransform="translate(98 -195.1)" xlink:href="#linear-gradient-3"/>
    <mask id="mask-20" x="31" y="23.4" width="10.2" height="7.1" maskUnits="userSpaceOnUse">
      <rect class="cls-20" x="31" y="23.4" width="10.2" height="7.1"/>
    </mask>
    <linearGradient id="linear-gradient-26" x1="-53.3" y1="217.1" x2="-53.3" y2="228.1" gradientTransform="translate(68.6 -203.9)" xlink:href="#linear-gradient-3"/>
    <mask id="mask-21" x="10.2" y="17.5" width="10.1" height="7" maskUnits="userSpaceOnUse">
      <rect class="cls-33" x="10.2" y="17.5" width="10.1" height="7"/>
    </mask>
    <linearGradient id="linear-gradient-27" x1="-48.2" y1="208.1" x2="-48.2" y2="222.8" gradientTransform="translate(60.9 -188.1)" xlink:href="#linear-gradient-3"/>
    <mask id="mask-22" x="4.8" y="20.2" width="15.8" height="15.1" maskUnits="userSpaceOnUse">
      <rect class="cls-29" x="4.8" y="20.2" width="15.8" height="15.1"/>
    </mask>
    <linearGradient id="linear-gradient-28" x1="-58.7" y1="227.9" x2="-58.7" y2="211.7" gradientTransform="translate(97.3 -196.8)" xlink:href="#linear-gradient-3"/>
    <mask id="mask-23" x="30.5" y="12.6" width="16.1" height="16.8" maskUnits="userSpaceOnUse">
      <rect class="cls-38" x="30.5" y="12.6" width="16.1" height="16.8"/>
    </mask>
  </defs>
  <g>
    <g class="cls-60">
      <rect class="cls-8" x="323.4" y="49.6" width="43" height="27.5"/>
    </g>
    <g class="cls-53">
      <rect class="cls-25" x="339.5" y="56.2" width="26.6" height="20.9"/>
    </g>
    <g class="cls-68">
      <path class="cls-1" d="M361.1,62.4c-1.5,1.3-3,2.5-4.6,3.6,0,.1,0,.3,0,.4,0,1.8-1.5,3.3-3.3,3.3s-2-.5-2.6-1.2l-7.3,4.2h16.6c.7,0,1.2-.6,1.2-1.2v-9.1Z"/>
    </g>
    <g class="cls-47">
      <rect class="cls-40" x="323.4" y="49.6" width="42.2" height="24.2"/>
    </g>
    <g class="cls-64">
      <rect class="cls-16" x="323.4" y="51.6" width="26.2" height="20.2"/>
    </g>
    <g class="cls-67">
      <path class="cls-6" d="M329.4,63s2.9-2.7,5.5-4.2c0,0-1.9.7-5.5,3.6v.6Z"/>
    </g>
    <g class="cls-46">
      <path class="cls-34" d="M361.6,61.9s-3,2.8-5.6,4.5c0,0,2.3-1,5.6-3.6v-.9Z"/>
    </g>
    <g class="cls-50">
      <path class="cls-1" d="M337.2,73.3h-3.8c-1.6,1.1-5.7,1.9-7.6,1,2.1,1.8,8.5,0,11.4-.9h0Z"/>
    </g>
    <g class="cls-59">
      <path class="cls-30" d="M353.8,51.6h2.8c1.5-.7,7.8-2.6,9-.5h0c-.8-1.4-3.7-1.5-7.6-.6-1.3.3-2.7.7-4.1,1.2"/>
    </g>
    <g class="cls-56">
      <path class="cls-2" d="M334.9,57c.5-1.1,1.7-1.8,2.9-1.8s2,.5,2.6,1.2l7.3-4.2h-16.6c-.3,0-.6.1-.8.3l4.5,4.5ZM329.9,62.5c.2-.2.4-.3.6-.5h-.6v.5Z"/>
    </g>
    <g class="cls-63">
      <path class="cls-2" d="M359.7,55.8c-1.4,0-2.5-1.1-2.5-2.5,0,1.4-1.1,2.5-2.5,2.5,1.4,0,2.5,1.1,2.5,2.5,0-1.4,1.1-2.5,2.5-2.5"/>
    </g>
    <g class="cls-71">
      <path class="cls-2" d="M354.4,58c-.6,0-1.1-.5-1.1-1.1,0,.6-.5,1.1-1.2,1.1.6,0,1.2.5,1.2,1.1,0-.6.5-1.1,1.1-1.1"/>
    </g>
    <g class="cls-58">
      <path class="cls-13" d="M351.7,66.5c0-1.5,2-2,2.7-.7.5.9-.2,2.1-1.3,2.1s-1.4-.6-1.4-1.4M358.3,61.9c-1.3,1-2.5,1.9-3.5,2.6-.5-.4-1-.6-1.6-.6-2,0-3.2,2.1-2.2,3.8,1.4,2.4,5.4,1.2,4.6-2,1.6-1.1,3.3-2.4,4.9-3.8h-2.3Z"/>
    </g>
    <g class="cls-52">
      <path class="cls-13" d="M336.5,59.3c-.7-.9,0-2.3,1.2-2.3s1.4.6,1.4,1.4c0,1.4-1.8,2-2.6.8M330.4,63h2.3c1.2-1,2.4-1.9,3.4-2.5.5.4,1,.6,1.6.6,2,0,3.2-2.1,2.2-3.8-1.4-2.4-5.4-1.2-4.6,2-1.6,1.1-3.3,2.4-4.9,3.8Z"/>
    </g>
    <g class="cls-44">
      <path class="cls-37" d="M337.7,61.3c-.6,0-1.2-.2-1.6-.5-2.6,1.8-4.9,3.7-6.7,5.5-.2.2-.4.4-.6.6-1.8,2-3.1,3.7-3.5,5.1-.2.7-.2,1.3,0,1.8h0c0,0,.2,0,.2,0-.6-3.7,7.9-10.5,10.5-12.3.9.5,2.1.5,3,0,.9-.6,1.5-1.6,1.5-2.6-.1,1.4-1.3,2.5-2.8,2.5"/>
    </g>
    <g class="cls-74">
      <path class="cls-37" d="M365.5,51.1c.5,1.4-1.2,3.9-3.4,6.2-3.1,3-5.6,5-7.4,6-1.2-.7-2.8-.4-3.7.6-1,1.1-1.1,2.7-.2,4-.2-.4-.4-.9-.4-1.4,0-1.5,1.3-2.8,2.8-2.8s1.2.2,1.6.5c2.7-1.9,5-3.8,6.7-5.6.2-.2.4-.4.6-.6,2.1-2.2,3.4-4.2,3.6-5.7,0-.5,0-.9-.2-1.2,0,0,0,0,0,0h0Z"/>
    </g>
  </g>
  <g>
    <g>
      <path class="cls-41" d="M29.2,35.5h-6.9v.6l-2.7,1v1.4h12.3v-1.4l-2.7-1v-.6ZM33.6,26.8c.7,0,1.2.5,1.2,1.2s-.5,1.2-1.2,1.2-1.2-.5-1.2-1.2.5-1.2,1.2-1.2ZM3,33.2c.5-1.8,1.9-4,4.1-6.2.6-.7,1.3-1.3,2.1-2h0c0,0,0,0,0,0h0s0,0,0,0h0s0,0,0,0h0s0,0,0,0h0s0,0,0,0h0s0,0,0,0h0s0,0,0,0h0s0,0,0,0h0c0,0,0,0,0,0h0c0,0,0-.1,0-.1h0s0,0,0,0h0s0,0,0,0h0c0,0,0,0,0,0h0c0,0,0,0,0,0h0s0,0,0,0h0s0,0,0,0h0s0,0,0,0h0s0,0,0,0h0s0,0,0,0h0s0,0,0,0h0s0,0,0,0h0c0,0,0,0,0,0h0c0,0,0,0,0,0h0s0,0,0,0h0s0,0,0,0h0s0,0,0,0h0s0,0,0,0h0s0,0,0,0h0s0,0,0,0h0s0,0,0,0h0c0,0,0,0,0,0h0c0,0,0,0,0,0h0s0,0,0,0h0s0,0,0,0h0s0,0,0,0h0s0,0,0,0h0s0,0,0,0h0s0,0,0,0h0s0,0,0,0h0c0,0,0,0,0,0h0c0,0,0,0,0,0h0s0,0,0,0h0s0,0,0,0h0s0,0,0,0h0s0,0,0,0h0s.2-.2.2-.2h0s0,0,0,0h0c0,0,0,0,0,0h0s0,0,0,0h0c0,0,0,0,0,0h0s0,0,0,0h0c0,0,0,0,0,0h0s0,0,0,0h0s0,0,0,0h0s0,0,0,0h0c.4-.3.8-.6,1.3-.9,0-.2,0-.4,0-.6,0-1.5,1.3-2.8,2.9-2.8s2.9,1.2,2.9,2.8-1.3,2.8-2.9,2.8-1.2-.2-1.7-.5c-2.7,1.8-5,3.7-6.9,5.5-.2.2-.4.4-.6.6-2.9,3-4.3,5.5-3.5,6.9h0c.9,1.4,3.8,1.5,7.8.6h0s0,0,0,0h0s0,0,0,0h0s0,0,0,0h0s0,0,0,0h0s0,0,0,0h0s0,0,0,0h0s0,0,0,0h0s0,0,0,0h0s0,0,0,0h0s0,0,0,0h0s0,0,0,0h0s0,0,0,0h0s0,0,0,0h0s0,0,0,0h0s0,0,0,0h0s0,0,0,0h0s0,0,0,0h0s0,0,0,0h0s0,0,0,0h0s0,0,0,0h0s0,0,0,0h0s0,0,0,0h0s0,0,0,0h0s0,0,0,0h0s0,0,0,0h0s0,0,0,0h0s0,0,0,0h0s0,0,0,0h0s0,0,0,0h0s0,0,0,0h0s0,0,0,0h0s0,0,0,0h0s0,0,0,0h0s0,0,0,0h0s0,0,0,0h0s0,0,0,0h0s0,0,0,0h0s0,0,0,0h0s5.6,0,5.6,0h0,17.7c1,0,1.8-.8,1.8-1.7v-9.6c0,0,.2-.2.3-.2.4-.3.8-.7,1.1-1,0,0,0,0,0,0,2-1.9,2.8-3.5,3.3-4.4-.7,1-1.6,2.1-2.6,3.2-.6.7-1.3,1.3-2.1,2h0c0,0,0,.1,0,.1h0s0,0,0,0h0c0,0,0,0,0,0h0s0,0,0,0h0s0,0,0,0h0s0,0,0,0h0s0,0,0,0h0s0,0,0,0h0c0,0,0,0,0,0h0s0,0,0,0h0s0,0,0,0h0s0,0,0,0h0s0,0,0,0h0s0,0,0,0h0s0,0,0,0h0c0,0,0,0,0,0h0s0,0,0,0h0s0,0,0,0h0s0,0,0,0h0s0,0,0,0h0s0,0,0,0h0c0,0,0,0,0,0h0s0,0,0,0h0s0,0,0,0h0s0,0,0,0h0s0,0,0,0h0s0,0,0,0h0c0,0,0,0,0,0h0s0,0,0,0h0s0,0,0,0h0s0,0,0,0h0s0,0,0,0h0s0,0,0,0h0s0,0,0,0h0c0,0,0,0,0,0h0s0,0,0,0h0s0,0,0,0h0s0,0,0,0h0s0,0,0,0h0s0,0,0,0h0c0,0,0,0,0,0h0s0,0,0,0h0s0,0,0,0h0s0,0,0,0h0s0,0,0,0h0s0,0,0,0h0c0,0,0,0,0,0h0s0,0,0,0h0s0,0,0,0h0s0,0,0,0h0s0,0,0,0h0s0,0,0,0h0c0,0,0,0,0,0h0s0,0,0,0h0c-.6.4-1.1.8-1.7,1.3,0,.2,0,.4,0,.6,0,1.5-1.3,2.8-2.9,2.8s-2.9-1.2-2.9-2.8,1.3-2.8,2.9-2.8,1.2.2,1.7.5c2.7-1.9,5.1-3.7,6.9-5.5.2-.2.4-.4.6-.6,2.9-3,4.3-5.5,3.5-6.9h0c-.9-1.4-3.8-1.5-7.8-.6-1.3.3-2.8.7-4.3,1.2H11c-1,0-1.8.8-1.8,1.7v9.6c0,0-.2.2-.3.2-.7.6-1.4,1.3-2.1,2-.7.7-1.5,1.6-2.2,2.6-1.4,2-1.5,3.6-1.6,3.9ZM17.7,18.8c.7,0,1.2.5,1.2,1.2s-.5,1.2-1.2,1.2-1.2-.5-1.2-1.2.5-1.2,1.2-1.2Z"/>
      <g class="cls-54">
        <rect class="cls-36" x="3" y="11.2" width="44.2" height="27.3"/>
      </g>
    </g>
    <g>
      <path class="cls-42" d="M29.2,35.5h-6.9v.6l-2.7,1v1.4h12.3v-1.4l-2.7-1v-.6ZM31.2,29.3l-9.6,5.4h1.2,0,17.7c1,0,1.8-.8,1.8-1.7v-9.6c0,0,.2-.2.3-.2.4-.3.8-.7,1.1-1,0,0,0,0,0,0,2-1.9,2.8-3.5,3.3-4.4-.7,1-1.6,2.1-2.6,3.2-.6.7-1.3,1.3-2.1,2h0c0,0,0,.1,0,.1h0s0,0,0,0h0c0,0,0,0,0,0h0s0,0,0,0h0s0,0,0,0h0s0,0,0,0h0s0,0,0,0h0s0,0,0,0h0c0,0,0,0,0,0h0s0,0,0,0h0s0,0,0,0h0s0,0,0,0h0s0,0,0,0h0s0,0,0,0h0s0,0,0,0h0c0,0,0,0,0,0h0s0,0,0,0h0s0,0,0,0h0s0,0,0,0h0s0,0,0,0h0s0,0,0,0h0c0,0,0,0,0,0h0s0,0,0,0h0s0,0,0,0h0s0,0,0,0h0s0,0,0,0h0s0,0,0,0h0c0,0,0,0,0,0h0s0,0,0,0h0s0,0,0,0h0s0,0,0,0h0s0,0,0,0h0s0,0,0,0h0s0,0,0,0h0c0,0,0,0,0,0h0s0,0,0,0h0s0,0,0,0h0s0,0,0,0h0s0,0,0,0h0s0,0,0,0h0c0,0,0,0,0,0h0s0,0,0,0h0s0,0,0,0h0s0,0,0,0h0s0,0,0,0h0s0,0,0,0h0c0,0,0,0,0,0h0s0,0,0,0h0s0,0,0,0h0s0,0,0,0h0s0,0,0,0h0s0,0,0,0h0c0,0,0,0,0,0h0s0,0,0,0h0c-.6.4-1.1.8-1.7,1.3,0,.2,0,.4,0,.6,0,1.5-1.3,2.8-2.9,2.8s-2-.6-2.5-1.4ZM33.6,27.9l-1.1.6c.2.4.6.6,1.1.6.7,0,1.2-.5,1.2-1.2s0-.4-.2-.6l-1.1.6Z"/>
      <g class="cls-70">
        <rect class="cls-36" x="19.6" y="17.7" width="27.4" height="20.8"/>
      </g>
    </g>
    <g class="cls-55">
      <path class="cls-9" d="M41.7,23.9c-1.5,1.3-3.1,2.5-4.7,3.6,0,.1,0,.3,0,.4,0,1.8-1.5,3.3-3.4,3.3s-2-.5-2.6-1.2l-7.6,4.2h17c.7,0,1.3-.6,1.3-1.2v-9.1Z"/>
    </g>
    <g>
      <path class="cls-41" d="M5.1,35.3L46.4,12.6c-.9-1.3-3.8-1.4-7.8-.6-1.3.3-2.8.7-4.3,1.2H11c-1,0-1.8.8-1.8,1.7v9.6c0,0-.2.2-.3.2-.7.6-1.4,1.3-2.1,2-.7.7-1.5,1.6-2.2,2.6-1.4,2-1.5,3.6-1.6,3.9.5-1.8,1.9-4,4.1-6.2.6-.7,1.3-1.3,2.1-2h0c0,0,0,0,0,0h0s0,0,0,0h0s0,0,0,0h0s0,0,0,0h0s0,0,0,0h0s0,0,0,0h0s0,0,0,0h0s0,0,0,0h0c0,0,0,0,0,0h0c0,0,0-.1,0-.1h0s0,0,0,0h0s0,0,0,0h0c0,0,0,0,0,0h0c0,0,0,0,0,0h0s0,0,0,0h0s0,0,0,0h0s0,0,0,0h0s0,0,0,0h0s0,0,0,0h0s0,0,0,0h0s0,0,0,0h0c0,0,0,0,0,0h0c0,0,0,0,0,0h0s0,0,0,0h0s0,0,0,0h0s0,0,0,0h0s0,0,0,0h0s0,0,0,0h0s0,0,0,0h0s0,0,0,0h0c0,0,0,0,0,0h0c0,0,0,0,0,0h0s0,0,0,0h0s0,0,0,0h0s0,0,0,0h0s0,0,0,0h0s0,0,0,0h0s0,0,0,0h0s0,0,0,0h0c0,0,0,0,0,0h0c0,0,0,0,0,0h0s0,0,0,0h0s0,0,0,0h0s0,0,0,0h0s0,0,0,0h0s.2-.2.2-.2h0s0,0,0,0h0c0,0,0,0,0,0h0s0,0,0,0h0c0,0,0,0,0,0h0s0,0,0,0h0c0,0,0,0,0,0h0s0,0,0,0h0s0,0,0,0h0s0,0,0,0h0c.4-.3.8-.6,1.3-.9,0-.2,0-.4,0-.6,0-1.5,1.3-2.8,2.9-2.8s2.9,1.2,2.9,2.8-1.3,2.8-2.9,2.8-1.2-.2-1.7-.5c-2.7,1.8-5,3.7-6.9,5.5-.2.2-.4.4-.6.6-2.9,3-4.3,5.5-3.5,6.9h0ZM17.7,18.8c.7,0,1.2.5,1.2,1.2s-.5,1.2-1.2,1.2-1.2-.5-1.2-1.2.5-1.2,1.2-1.2Z"/>
      <g class="cls-49">
        <rect class="cls-36" x="3" y="11.2" width="43.3" height="24.1"/>
      </g>
    </g>
    <g>
      <path class="cls-42" d="M20.2,18.6l9.7-5.4H11c-1,0-1.8.8-1.8,1.7v9.6c0,0-.2.2-.3.2-.7.6-1.4,1.3-2.1,2-.7.7-1.5,1.6-2.2,2.6-1.4,2-1.5,3.6-1.6,3.9.5-1.8,1.9-4,4.1-6.2.6-.7,1.3-1.3,2.1-2h0c0,0,0,0,0,0h0s0,0,0,0h0s0,0,0,0h0s0,0,0,0h0s0,0,0,0h0s0,0,0,0h0s0,0,0,0h0s0,0,0,0h0c0,0,0,0,0,0h0c0,0,0-.1,0-.1h0s0,0,0,0h0s0,0,0,0h0c0,0,0,0,0,0h0c0,0,0,0,0,0h0s0,0,0,0h0s0,0,0,0h0s0,0,0,0h0s0,0,0,0h0s0,0,0,0h0s0,0,0,0h0s0,0,0,0h0c0,0,0,0,0,0h0c0,0,0,0,0,0h0s0,0,0,0h0s0,0,0,0h0s0,0,0,0h0s0,0,0,0h0s0,0,0,0h0s0,0,0,0h0s0,0,0,0h0c0,0,0,0,0,0h0c0,0,0,0,0,0h0s0,0,0,0h0s0,0,0,0h0s0,0,0,0h0s0,0,0,0h0s0,0,0,0h0s0,0,0,0h0s0,0,0,0h0c0,0,0,0,0,0h0c0,0,0,0,0,0h0s0,0,0,0h0s0,0,0,0h0s0,0,0,0h0s0,0,0,0h0s.2-.2.2-.2h0s0,0,0,0h0c0,0,0,0,0,0h0s0,0,0,0h0c0,0,0,0,0,0h0s0,0,0,0h0c0,0,0,0,0,0h0s0,0,0,0h0s0,0,0,0h0s0,0,0,0h0c.4-.3.8-.6,1.3-.9,0-.2,0-.4,0-.6,0-1.5,1.3-2.8,2.9-2.8s2,.6,2.5,1.4M17.7,18.8c.5,0,.8.2,1.1.6l-1.1.6-1,.7c-.1-.2-.2-.4-.2-.7,0-.7.5-1.2,1.2-1.2Z"/>
      <g class="cls-51">
        <rect class="cls-36" x="3" y="13.2" width="26.9" height="20.1"/>
      </g>
    </g>
    <g class="cls-48">
      <path class="cls-2" d="M9.2,24.5s3-2.6,5.7-4.2c0,0-1.9.7-5.7,3.6v.6Z"/>
    </g>
    <g class="cls-72">
      <path class="cls-2" d="M42.3,23.4s-3.1,2.8-5.7,4.4c0,0,2.4-1,5.7-3.6v-.9Z"/>
    </g>
    <g class="cls-62">
      <path class="cls-2" d="M17.2,34.7h-4c-1.7,1.1-5.8,1.9-7.8,1,2.2,1.8,8.8,0,11.7-.9h0Z"/>
    </g>
    <g class="cls-65">
      <path class="cls-2" d="M34.3,13.2h2.8c1.6-.7,8-2.5,9.3-.5h0c-.9-1.4-3.8-1.5-7.8-.6-1.3.3-2.8.7-4.3,1.2"/>
    </g>
    <g class="cls-45">
      <path class="cls-9" d="M14.8,18.5c.6-1.1,1.7-1.8,3-1.8s2,.5,2.6,1.2l7.6-4.2H11c-.3,0-.6.1-.8.3l4.6,4.5ZM9.7,24c.2-.2.4-.3.6-.5h-.6v.5Z"/>
    </g>
    <g class="cls-66">
      <path class="cls-2" d="M40.4,17.3c-1.4,0-2.6-1.1-2.6-2.5,0,1.4-1.2,2.5-2.6,2.5,1.4,0,2.6,1.1,2.6,2.5,0-1.4,1.1-2.5,2.6-2.5"/>
    </g>
    <g class="cls-61">
      <path class="cls-2" d="M34.9,19.5c-.7,0-1.2-.5-1.2-1.1,0,.6-.5,1.1-1.2,1.1.7,0,1.2.5,1.2,1.1,0-.6.5-1.1,1.2-1.1"/>
    </g>
    <g class="cls-57">
      <path class="cls-30" d="M32.2,27.9c0-1.5,2-2,2.8-.7.5.9-.2,2.1-1.3,2.1s-1.5-.6-1.5-1.4M38.9,23.4c-1.3,1-2.5,1.9-3.6,2.6-.5-.4-1-.6-1.7-.6-2,0-3.3,2.1-2.3,3.8,1.4,2.4,5.6,1.2,4.8-2,1.6-1.1,3.4-2.4,5.1-3.8h-2.4Z"/>
    </g>
    <g class="cls-73">
      <path class="cls-30" d="M16.5,20.8c-.7-.9,0-2.3,1.2-2.3s1.5.6,1.5,1.4c0,1.4-1.9,2-2.7.8M10.2,24.5h2.4c1.2-1,2.5-1.8,3.5-2.5.5.4,1,.6,1.7.6,2,0,3.3-2.1,2.3-3.8-1.4-2.4-5.6-1.2-4.8,2-1.6,1.1-3.4,2.4-5,3.7Z"/>
    </g>
    <g class="cls-69">
      <path class="cls-2" d="M17.7,22.8c-.6,0-1.2-.2-1.7-.5-2.7,1.8-5,3.7-6.9,5.5-.2.2-.4.4-.6.6-1.9,1.9-3.2,3.7-3.6,5.1-.2.7-.2,1.3,0,1.8h0c0,0,.2,0,.2,0-.6-3.6,8.1-10.5,10.8-12.3,1,.5,2.1.5,3.1,0,.9-.6,1.5-1.5,1.5-2.6-.1,1.4-1.4,2.5-2.9,2.5"/>
    </g>
    <g class="cls-43">
      <path class="cls-2" d="M46.3,12.6c.5,1.4-1.2,3.8-3.5,6.2-3.2,3-5.7,5-7.6,6-1.3-.6-2.8-.4-3.8.6-1,1.1-1.2,2.7-.2,3.9-.2-.4-.4-.9-.4-1.4,0-1.5,1.3-2.8,2.9-2.8s1.2.2,1.7.5c2.7-1.9,5.1-3.7,6.9-5.5.2-.2.4-.4.6-.6,2.2-2.2,3.5-4.2,3.7-5.6,0-.5,0-.9-.2-1.2,0,0,0,0,0,0h0Z"/>
    </g>
  </g>
</svg>