<?xml version="1.0" encoding="UTF-8"?>
<svg id="Layer_1" data-name="Layer 1" xmlns="http://www.w3.org/2000/svg" version="1.1" xmlns:xlink="http://www.w3.org/1999/xlink" viewBox="0 0 50 50">
  <defs>
    <style>
      .cls-1 {
        fill: #222551;
      }

      .cls-1, .cls-2, .cls-3, .cls-4, .cls-5, .cls-6, .cls-7, .cls-8, .cls-9, .cls-10, .cls-11, .cls-12, .cls-13, .cls-14 {
        stroke-width: 0px;
      }

      .cls-1, .cls-2, .cls-3, .cls-4, .cls-5, .cls-10, .cls-11, .cls-14 {
        fill-rule: evenodd;
      }

      .cls-2, .cls-12 {
        fill: #fff;
      }

      .cls-3 {
        fill: #223770;
      }

      .cls-4 {
        fill: #5293cf;
      }

      .cls-5 {
        fill: #b4bdbd;
      }

      .cls-15 {
        clip-path: url(#clippath-2);
      }

      .cls-16 {
        clip-path: url(#clippath-6);
      }

      .cls-6 {
        fill: none;
      }

      .cls-17 {
        clip-path: url(#clippath-7);
      }

      .cls-18 {
        clip-path: url(#clippath-1);
      }

      .cls-19 {
        clip-path: url(#clippath-4);
      }

      .cls-7 {
        fill: url(#Adsız_degrade_28);
      }

      .cls-20 {
        clip-path: url(#clippath);
      }

      .cls-8 {
        fill: url(#Adsız_degrade_27);
      }

      .cls-9 {
        fill: url(#Adsız_degrade_25);
      }

      .cls-21 {
        clip-path: url(#clippath-3);
      }

      .cls-10 {
        fill: #66c3d2;
      }

      .cls-11 {
        fill: #272b64;
      }

      .cls-13 {
        fill: url(#Adsız_degrade_26);
      }

      .cls-22 {
        clip-path: url(#clippath-5);
      }

      .cls-14 {
        fill: #252a5e;
      }
    </style>
    <clipPath id="clippath">
      <path class="cls-6" d="M-36.9,40.3h-7.9v.7l-3,1.1v1.6h14v-1.6l-3-1.1v-.7h-.1ZM-31.9,30c.8,0,1.4.6,1.4,1.4s-.6,1.4-1.4,1.4-1.4-.6-1.4-1.4.6-1.4,1.4-1.4ZM-66.7,37.6c.5-2.1,2.1-4.7,4.7-7.3.7-.8,1.5-1.5,2.4-2.3h0c0-.1.2-.3.2-.3h0c.5-.5,1-.8,1.4-1.2v-.8c0-1.8,1.5-3.3,3.3-3.3s3.3,1.5,3.3,3.3-1.5,3.3-3.3,3.3-1.4-.2-1.9-.6c-3.1,2.2-5.7,4.4-7.8,6.4-.3.3-.5.5-.7.7-3.3,3.5-4.9,6.4-4,8h0c1,1.6,4.3,1.7,8.9.7h26.5c1.1,0,2-.9,2-2v-11.3c0,0,.2-.2.3-.3.4-.4.9-.8,1.3-1.2h0c2.3-2.2,3.2-4.1,3.7-5.1-.8,1.2-1.8,2.4-3,3.7-.7.8-1.5,1.5-2.4,2.3h0c-.6.6-1.3,1.1-2,1.6v.8c0,1.8-1.5,3.3-3.3,3.3s-3.3-1.5-3.3-3.3,1.5-3.3,3.3-3.3,1.4.2,1.9.6c3.1-2.2,5.8-4.4,7.9-6.5l.7-.7c3.3-3.5,4.9-6.4,4-8h0c-1-1.6-4.3-1.7-8.9-.7-1.5.3-3.1.8-4.8,1.4h-21.4c-1.1,0-2,.9-2,2v11.3c0,0-.2.2-.3.3-.8.8-1.6,1.5-2.4,2.4-.8.8-1.7,1.9-2.5,3-1.7.9-1.9,2.8-1.9,3.1ZM-50,20.6c.8,0,1.4.6,1.4,1.4s-.6,1.4-1.4,1.4-1.4-.6-1.4-1.4.6-1.4,1.4-1.4Z"/>
    </clipPath>
    <linearGradient id="Adsız_degrade_25" data-name="Adsız degrade 25" x1="-89.8" y1="-27" x2="-89.8" y2="2.5" gradientTransform="translate(0 52) scale(1 -1)" gradientUnits="userSpaceOnUse">
      <stop offset="0" stop-color="#283489"/>
      <stop offset="1" stop-color="#5293cf"/>
    </linearGradient>
    <clipPath id="clippath-1">
      <path class="cls-6" d="M-36.9,40.3h-7.9v.7l-3,1.1v1.6h14v-1.6l-3-1.1v-.7h-.1ZM-34.7,33l-10.9,6.3h21.5c1.1,0,2-.9,2-2v-11.3c0,0,.2-.2.3-.3.4-.4.9-.8,1.3-1.2h0c2.3-2.2,3.2-4.1,3.7-5.1-.8,1.2-1.8,2.4-3,3.7-.7.8-1.5,1.5-2.4,2.3h0c-.6.6-1.3,1.1-2,1.6v.8c0,1.8-1.5,3.3-3.3,3.3s-2.3-.7-2.8-1.6l-4.4,3.5ZM-31.9,31.4l-1.2.7c.2.4.7.7,1.2.7.8,0,1.4-.6,1.4-1.4s0-.5-.2-.7c0,0-1.2.7-1.2.7Z"/>
    </clipPath>
    <linearGradient id="Adsız_degrade_26" data-name="Adsız degrade 26" x1="-32.3" y1="8.2" x2="-32.3" y2="41.5" gradientTransform="translate(0 52) scale(1 -1)" gradientUnits="userSpaceOnUse">
      <stop offset="0" stop-color="#292f71"/>
      <stop offset="1" stop-color="#5293cf"/>
    </linearGradient>
    <clipPath id="clippath-2">
      <path class="cls-6" d="M-44.2,83.1L2.7,56.4c-1-1.5-4.3-1.6-8.9-.6-1.5.3-3.1.8-4.8,1.4h-26.5c-1.1,0-2,.9-2,2v11.3c0,0-.2.2-.3.3-.8.8-1.6,1.5-2.4,2.4-.8.8-1.7,1.9-2.5,3-1.7,2.3-1.9,4.2-1.9,4.5.5-2.1,2.1-4.7,4.7-7.3.7-.8,1.5-1.5,2.4-2.3h0c0-.1.2-.3.2-.3h0c.5-.5,1-.8,1.4-1.2v-.8c0-1.8,1.5-3.3,3.3-3.3s3.3,1.5,3.3,3.3-1.5,3.3-3.3,3.3-1.4-.2-1.9-.6c-3.1,2.2-5.7,4.4-7.8,6.4-.3.3-.5.5-.7.7-3.3,3.5-4.9,6.4-4,8h0l4.7-3.5ZM-29.9,63.7c.8,0,1.4.6,1.4,1.4s-.6,1.4-1.4,1.4-1.4-.6-1.4-1.4.6-1.4,1.4-1.4Z"/>
    </clipPath>
    <linearGradient id="Adsız_degrade_27" data-name="Adsız degrade 27" x1="-22" y1="-34.3" x2="-22" y2="-6.1" gradientTransform="translate(0 52) scale(1 -1)" gradientUnits="userSpaceOnUse">
      <stop offset="0" stop-color="#283489"/>
      <stop offset="1" stop-color="#5293cf"/>
    </linearGradient>
    <clipPath id="clippath-3">
      <path class="cls-6" d="M-27,63.7l11-6.4h-21.5c-1.1,0-2,.9-2,2v11.4c0,0-.2.2-.3.3-.8.8-1.6,1.5-2.4,2.4-.8.8-1.7,1.9-2.5,3-1.7,2.4-1.9,4.3-1.9,4.6.5-2.1,2.1-4.7,4.7-7.3.7-.8,1.5-1.5,2.4-2.3h0c0-.1.2-.3.2-.3h0c.5-.5,1-.8,1.4-1.2v-.8c0-1.8,1.5-3.3,3.3-3.3s2.3.7,2.8,1.6M-29.9,63.9c.5,0,1,.3,1.2.7l-1.2.7-1.1.8c-.2-.2-.3-.5-.3-.8,0-.8.6-1.4,1.4-1.4Z"/>
    </clipPath>
    <linearGradient id="Adsız_degrade_28" data-name="Adsız degrade 28" x1="-31.3" y1="-34.6" x2="-31.3" y2="-9.7" gradientTransform="translate(0 52) scale(1 -1)" gradientUnits="userSpaceOnUse">
      <stop offset="0" stop-color="#283489"/>
      <stop offset="1" stop-color="#5293cf"/>
    </linearGradient>
    <clipPath id="clippath-4">
      <path class="cls-6" d="M-379.6,138.7h-6.9v.6l-2.7,1v1.4h12.3v-1.4l-2.7-1v-.6h0ZM-375.2,129.9c.7,0,1.2.5,1.2,1.2s-.5,1.2-1.2,1.2-1.2-.5-1.2-1.2.5-1.2,1.2-1.2ZM-405.8,136.4c.5-1.8,1.9-4,4.1-6.2.6-.7,1.3-1.3,2.1-2h0c0-.1.2-.3.2-.3h0c.4-.3.8-.6,1.3-.9v-.6c0-1.5,1.3-2.8,2.9-2.8s2.9,1.2,2.9,2.8-1.3,2.8-2.9,2.8-1.2-.2-1.7-.5c-2.7,1.8-5,3.7-6.9,5.5-.2.2-.4.4-.6.6-2.9,3-4.3,5.5-3.5,6.9h0c.9,1.4,3.8,1.5,7.8.6h23.3c1,0,1.8-.8,1.8-1.7v-9.6s.2-.2.3-.2c.4-.3.8-.7,1.1-1h0c2-1.9,2.8-3.5,3.3-4.4-.7,1-1.6,2.1-2.6,3.2-.6.7-1.3,1.3-2.1,2h0c-.6.5-1.1.9-1.7,1.4v.6c0,1.5-1.3,2.8-2.9,2.8s-2.9-1.2-2.9-2.8,1.3-2.8,2.9-2.8,1.2.2,1.7.5c2.7-1.9,5.1-3.7,6.9-5.5.2-.2.4-.4.6-.6,2.9-3,4.3-5.5,3.5-6.9h0c-.9-1.4-3.8-1.5-7.8-.6-1.3.3-2.8.7-4.3,1.2h-23.3c-1,0-1.8.8-1.8,1.7v9.6s-.2.2-.3.2c-.7.6-1.4,1.3-2.1,2s-1.5,1.6-2.2,2.6c-1.4,2-1.5,3.6-1.6,3.9l4.5-1.5ZM-391.1,121.9c.7,0,1.2.5,1.2,1.2s-.5,1.2-1.2,1.2-1.2-.5-1.2-1.2.5-1.2,1.2-1.2Z"/>
    </clipPath>
    <clipPath id="clippath-5">
      <path class="cls-6" d="M-379.6,138.7h-6.9v.6l-2.7,1v1.4h12.3v-1.4l-2.7-1v-.6h0ZM-377.7,132.5l-9.6,5.4h18.9c1,0,1.8-.8,1.8-1.7v-9.6s.2-.2.3-.2c.4-.3.8-.7,1.1-1h0c2-1.9,2.8-3.5,3.3-4.4-.7,1-1.6,2.1-2.6,3.2-.6.7-1.3,1.3-2.1,2h0c-.6.5-1.1.9-1.7,1.4v.6c0,1.5-1.3,2.8-2.9,2.8s-2-.6-2.5-1.4l-4,2.9ZM-375.2,131.1l-1.1.6c.2.4.6.6,1.1.6s1.2-.5,1.2-1.2,0-.4-.2-.6l-1.1.6h.1Z"/>
    </clipPath>
    <clipPath id="clippath-6">
      <path class="cls-6" d="M-403.7,138.4l41.2-22.7c-.9-1.3-3.8-1.4-7.8-.6-1.3.3-2.8.7-4.3,1.2h-23.3c-1,0-1.8.8-1.8,1.7v9.6s-.2.2-.3.2c-.7.6-1.4,1.3-2.1,2s-1.5,1.6-2.2,2.6c-1.4,2-1.5,3.6-1.6,3.9.5-1.8,1.9-4,4.1-6.2.6-.7,1.3-1.3,2.1-2h0c0,0,.2-.3.2-.3h0c.4-.3.8-.6,1.3-.9v-.6c0-1.5,1.3-2.8,2.9-2.8s2.9,1.2,2.9,2.8-1.3,2.8-2.9,2.8-1.2-.2-1.7-.5c-2.7,1.8-5,3.7-6.9,5.5-.2.2-.4.4-.6.6-2.9,3-4.3,5.5-3.5,6.9h0l4.3-3.2ZM-391.1,121.9c.7,0,1.2.5,1.2,1.2s-.5,1.2-1.2,1.2-1.2-.5-1.2-1.2.5-1.2,1.2-1.2Z"/>
    </clipPath>
    <clipPath id="clippath-7">
      <path class="cls-6" d="M-388.6,121.7l9.7-5.4h-18.9c-1,0-1.8.8-1.8,1.7v9.6s-.2.2-.3.2c-.7.6-1.4,1.3-2.1,2s-1.5,1.6-2.2,2.6c-1.4,2-1.5,3.6-1.6,3.9.5-1.8,1.9-4,4.1-6.2.6-.7,1.3-1.3,2.1-2h0c0,0,.2-.3.2-.3h0c.4-.3.8-.6,1.3-.9v-.6c0-1.5,1.3-2.8,2.9-2.8s2,.6,2.5,1.4M-391.1,121.9c.5,0,.8.2,1.1.6l-1.1.6-1,.7c-.1-.2-.2-.4-.2-.7,0-.7.5-1.2,1.2-1.2Z"/>
    </clipPath>
  </defs>
  <g class="cls-20">
    <rect class="cls-9" x="-114.9" y="50.7" width="50.2" height="32.1"/>
  </g>
  <g class="cls-18">
    <rect class="cls-13" x="-47.8" y="19.3" width="31.1" height="24.5"/>
  </g>
  <path class="cls-1" d="M-49.5,28.6c-1.7,1.5-3.5,2.9-5.4,4.2v.5c0,2.1-1.7,3.8-3.8,3.8s-2.3-.5-3-1.4l-8.6,5h19.4c.8,0,1.4-.6,1.4-1.4v-10.6h0Z"/>
  <g class="cls-15">
    <rect class="cls-8" x="-46.6" y="54.8" width="49.3" height="28.3"/>
  </g>
  <g class="cls-21">
    <rect class="cls-7" x="-46.6" y="57.2" width="30.6" height="23.8"/>
  </g>
  <path class="cls-3" d="M-59.7,27.3s3.4-3.1,6.4-4.9c0,0-2.2.8-6.4,4.2,0,0,0,.7,0,.7Z"/>
  <path class="cls-11" d="M-22.1,26s-3.5,3.3-6.5,5.2c0,0,2.7-1.2,6.5-4.2,0,0,0-1,0-1Z"/>
  <path class="cls-1" d="M-33.2,80h-4.5c-1.9,1.3-6.6,2.2-8.9,1.1,2.5,2.1,10,0,13.3-1.1h.1Z"/>
  <path class="cls-10" d="M-31.2,14h3.2c1.8-.8,9.1-3,10.6-.6h0c-1-1.6-4.3-1.7-8.9-.7-1.5.3-3.1.8-4.8,1.4"/>
  <path class="cls-2" d="M-36.4,53.5c.6-1.2,1.9-2.1,3.4-2.1s2.3.5,3,1.4l8.6-5h-19.3c-.4,0-.7.1-.9.3l5.3,5.3h-.1ZM-42.1,59.9c.2-.2.5-.4.7-.6h-.7v.6Z"/>
  <path class="cls-2" d="M-24.2,18.8c-1.6,0-2.9-1.3-2.9-2.9,0,1.6-1.3,2.9-2.9,2.9,1.6,0,2.9,1.3,2.9,2.9,0-1.6,1.3-2.9,2.9-2.9"/>
  <path class="cls-12" d="M67.2,3.3h6.9c2.7,0,4.7,1.7,4.7,3.9"/>
  <path class="cls-12" d="M79.2,14.2c0,2.5-2.1,4.3-5,4.3h-7"/>
  <path class="cls-12" d="M73.4,6.5h-2.1v2.7h2.1c.9,0,1.4-.5,1.4-1.3s-.5-1.3-1.4-1.3Z"/>
  <path class="cls-12" d="M75,13.7c0-.8-.6-1.4-1.5-1.4h-2.3v2.8h2.3c.9,0,1.5-.6,1.5-1.4Z"/>
  <path class="cls-2" d="M-30.4,21.5c-.7,0-1.3-.6-1.3-1.3,0,.7-.6,1.3-1.3,1.3.7,0,1.3.6,1.3,1.3,0-.7.6-1.3,1.3-1.3"/>
  <path class="cls-5" d="M-33.6,31.4c0-1.7,2.3-2.3,3.2-.8.6,1.1-.2,2.5-1.5,2.5s-1.7-.8-1.7-1.7M-25.9,26c-1.5,1.2-2.9,2.2-4,3-.6-.4-1.1-.7-1.9-.7-2.3,0-3.7,2.5-2.6,4.5,1.6,2.8,6.3,1.4,5.4-2.4,1.9-1.3,3.9-2.8,5.8-4.5h-2.7Z"/>
  <path class="cls-5" d="M-61.3,60.8c-.8-1.1,0-2.6,1.4-2.6s1.7.8,1.7,1.7c0,1.6-2.1,2.3-3.1,1M-68.5,65.1h2.7c1.4-1.1,2.8-2.2,3.9-3,.6.4,1.1.7,1.9.7,2.3,0,3.7-2.5,2.6-4.5-1.6-2.8-6.3-1.4-5.4,2.4-1.8,1.3-3.8,2.8-5.7,4.4Z"/>
  <path class="cls-14" d="M-34.5,72.2c-.7,0-1.4-.2-1.9-.6-3.1,2.2-5.7,4.4-7.8,6.4-.3.3-.5.5-.7.7-2.2,2.3-3.6,4.3-4.1,5.9-.2.8-.2,1.6,0,2.1h.2c-.7-4.3,9.3-12.3,12.2-14.4,1.1.6,2.4.5,3.5-.1s1.7-1.8,1.7-3.1c-.1,1.7-1.5,3-3.3,3"/>
  <path class="cls-14" d="M-17.5,13.3c.6,1.6-1.4,4.5-3.9,7.3-3.6,3.5-6.5,5.9-8.6,7-1.4-.8-3.2-.5-4.3.7-1.2,1.3-1.3,3.2-.3,4.6-.3-.5-.4-1-.4-1.6,0-1.8,1.5-3.3,3.3-3.3s1.4.2,1.9.6c3.1-2.2,5.8-4.4,7.9-6.5l.7-.7c2.5-2.6,4-4.9,4.2-6.6,0-.6,0-1-.2-1.4h-.3Z"/>
  <g>
    <g>
      <path class="cls-2" d="M-379.6,138.7h-6.9v.6l-2.7,1v1.4h12.3v-1.4l-2.7-1v-.6h0ZM-375.2,129.9c.7,0,1.2.5,1.2,1.2s-.5,1.2-1.2,1.2-1.2-.5-1.2-1.2.5-1.2,1.2-1.2ZM-405.8,136.4c.5-1.8,1.9-4,4.1-6.2.6-.7,1.3-1.3,2.1-2h0c0-.1.2-.3.2-.3h0c.4-.3.8-.6,1.3-.9v-.6c0-1.5,1.3-2.8,2.9-2.8s2.9,1.2,2.9,2.8-1.3,2.8-2.9,2.8-1.2-.2-1.7-.5c-2.7,1.8-5,3.7-6.9,5.5-.2.2-.4.4-.6.6-2.9,3-4.3,5.5-3.5,6.9h0c.9,1.4,3.8,1.5,7.8.6h23.3c1,0,1.8-.8,1.8-1.7v-9.6s.2-.2.3-.2c.4-.3.8-.7,1.1-1h0c2-1.9,2.8-3.5,3.3-4.4-.7,1-1.6,2.1-2.6,3.2-.6.7-1.3,1.3-2.1,2h0c-.6.5-1.1.9-1.7,1.4v.6c0,1.5-1.3,2.8-2.9,2.8s-2.9-1.2-2.9-2.8,1.3-2.8,2.9-2.8,1.2.2,1.7.5c2.7-1.9,5.1-3.7,6.9-5.5.2-.2.4-.4.6-.6,2.9-3,4.3-5.5,3.5-6.9h0c-.9-1.4-3.8-1.5-7.8-.6-1.3.3-2.8.7-4.3,1.2h-23.3c-1,0-1.8.8-1.8,1.7v9.6s-.2.2-.3.2c-.7.6-1.4,1.3-2.1,2s-1.5,1.6-2.2,2.6c-1.4,2-1.5,3.6-1.6,3.9l4.5-1.5ZM-391.1,121.9c.7,0,1.2.5,1.2,1.2s-.5,1.2-1.2,1.2-1.2-.5-1.2-1.2.5-1.2,1.2-1.2Z"/>
      <g class="cls-19">
        <rect class="cls-12" x="-405.8" y="114.3" width="44.2" height="27.3"/>
      </g>
    </g>
    <g>
      <path class="cls-10" d="M-379.6,138.7h-6.9v.6l-2.7,1v1.4h12.3v-1.4l-2.7-1v-.6h0ZM-377.7,132.5l-9.6,5.4h18.9c1,0,1.8-.8,1.8-1.7v-9.6s.2-.2.3-.2c.4-.3.8-.7,1.1-1h0c2-1.9,2.8-3.5,3.3-4.4-.7,1-1.6,2.1-2.6,3.2-.6.7-1.3,1.3-2.1,2h0c-.6.5-1.1.9-1.7,1.4v.6c0,1.5-1.3,2.8-2.9,2.8s-2-.6-2.5-1.4l-4,2.9ZM-375.2,131.1l-1.1.6c.2.4.6.6,1.1.6s1.2-.5,1.2-1.2,0-.4-.2-.6l-1.1.6h.1Z"/>
      <g class="cls-22">
        <rect class="cls-12" x="-389.2" y="120.8" width="27.4" height="20.8"/>
      </g>
    </g>
    <path class="cls-4" d="M-367.1,127c-1.5,1.3-3.1,2.5-4.7,3.6v.4c0,1.8-1.5,3.3-3.4,3.3s-2-.5-2.6-1.2l-7.6,4.2h17c.7,0,1.3-.6,1.3-1.2v-9.1h0Z"/>
    <g>
      <path class="cls-2" d="M-403.7,138.4l41.2-22.7c-.9-1.3-3.8-1.4-7.8-.6-1.3.3-2.8.7-4.3,1.2h-23.3c-1,0-1.8.8-1.8,1.7v9.6s-.2.2-.3.2c-.7.6-1.4,1.3-2.1,2s-1.5,1.6-2.2,2.6c-1.4,2-1.5,3.6-1.6,3.9.5-1.8,1.9-4,4.1-6.2.6-.7,1.3-1.3,2.1-2h0c0,0,.2-.3.2-.3h0c.4-.3.8-.6,1.3-.9v-.6c0-1.5,1.3-2.8,2.9-2.8s2.9,1.2,2.9,2.8-1.3,2.8-2.9,2.8-1.2-.2-1.7-.5c-2.7,1.8-5,3.7-6.9,5.5-.2.2-.4.4-.6.6-2.9,3-4.3,5.5-3.5,6.9h0l4.3-3.2ZM-391.1,121.9c.7,0,1.2.5,1.2,1.2s-.5,1.2-1.2,1.2-1.2-.5-1.2-1.2.5-1.2,1.2-1.2Z"/>
      <g class="cls-16">
        <rect class="cls-12" x="-405.8" y="114.3" width="43.3" height="24.1"/>
      </g>
    </g>
    <g>
      <path class="cls-10" d="M-388.6,121.7l9.7-5.4h-18.9c-1,0-1.8.8-1.8,1.7v9.6s-.2.2-.3.2c-.7.6-1.4,1.3-2.1,2s-1.5,1.6-2.2,2.6c-1.4,2-1.5,3.6-1.6,3.9.5-1.8,1.9-4,4.1-6.2.6-.7,1.3-1.3,2.1-2h0c0,0,.2-.3.2-.3h0c.4-.3.8-.6,1.3-.9v-.6c0-1.5,1.3-2.8,2.9-2.8s2,.6,2.5,1.4M-391.1,121.9c.5,0,.8.2,1.1.6l-1.1.6-1,.7c-.1-.2-.2-.4-.2-.7,0-.7.5-1.2,1.2-1.2Z"/>
      <g class="cls-17">
        <rect class="cls-12" x="-405.8" y="116.3" width="26.9" height="20.1"/>
      </g>
    </g>
    <path class="cls-2" d="M-399.6,127.6s3-2.6,5.7-4.2c0,0-1.9.7-5.7,3.6v.6Z"/>
    <path class="cls-2" d="M-366.6,126.5s-3.1,2.8-5.7,4.4c0,0,2.4-1,5.7-3.6v-.9h0Z"/>
    <path class="cls-2" d="M-391.6,137.8h-4c-1.7,1.1-5.8,1.9-7.8,1,2.2,1.8,8.8,0,11.7-.9h0Z"/>
    <path class="cls-2" d="M-374.6,116.3h2.8c1.6-.7,8-2.5,9.3-.5h0c-.9-1.4-3.8-1.5-7.8-.6-1.3.3-2.8.7-4.3,1.2"/>
    <path class="cls-4" d="M-394,121.6c.6-1.1,1.7-1.8,3-1.8s2,.5,2.6,1.2l7.6-4.2h-17c-.3,0-.6,0-.8.3l4.6,4.5h0ZM-399.1,127.1c.2-.2.4-.3.6-.5h-.6v.5Z"/>
    <path class="cls-2" d="M-368.5,120.4c-1.4,0-2.6-1.1-2.6-2.5,0,1.4-1.2,2.5-2.6,2.5,1.4,0,2.6,1.1,2.6,2.5,0-1.4,1.1-2.5,2.6-2.5"/>
    <path class="cls-2" d="M-373.9,122.7c-.7,0-1.2-.5-1.2-1.1,0,.6-.5,1.1-1.2,1.1.7,0,1.2.5,1.2,1.1,0-.6.5-1.1,1.2-1.1"/>
    <path class="cls-10" d="M-376.7,131.1c0-1.5,2-2,2.8-.7.5.9-.2,2.1-1.3,2.1s-1.5-.6-1.5-1.4M-370,126.5c-1.3,1-2.5,1.9-3.6,2.6-.5-.4-1-.6-1.7-.6-2,0-3.3,2.1-2.3,3.8,1.4,2.4,5.6,1.2,4.8-2,1.6-1.1,3.4-2.4,5.1-3.8h-2.4.1Z"/>
    <path class="cls-10" d="M-392.3,123.9c-.7-.9,0-2.3,1.2-2.3s1.5.6,1.5,1.4c0,1.4-1.9,2-2.7.8M-398.6,127.6h2.4c1.2-1,2.5-1.8,3.5-2.5.5.4,1,.6,1.7.6,2,0,3.3-2.1,2.3-3.8-1.4-2.4-5.6-1.2-4.8,2-1.6,1.1-3.4,2.4-5,3.7h-.1Z"/>
    <path class="cls-2" d="M-391.1,125.9c-.6,0-1.2-.2-1.7-.5-2.7,1.8-5,3.7-6.9,5.5-.2.2-.4.4-.6.6-1.9,1.9-3.2,3.7-3.6,5.1-.2.7-.2,1.3,0,1.8h.2c-.6-3.6,8.1-10.5,10.8-12.3,1,.5,2.1.5,3.1,0,.9-.6,1.5-1.5,1.5-2.6-.1,1.4-1.4,2.5-2.9,2.5"/>
    <path class="cls-2" d="M-362.5,115.7c.5,1.4-1.2,3.8-3.5,6.2-3.2,3-5.7,5-7.6,6-1.3-.6-2.8-.4-3.8.6-1,1.1-1.2,2.7-.2,3.9-.2-.4-.4-.9-.4-1.4,0-1.5,1.3-2.8,2.9-2.8s1.2.2,1.7.5c2.7-1.9,5.1-3.7,6.9-5.5.2-.2.4-.4.6-.6,2.2-2.2,3.5-4.2,3.7-5.6,0-.5,0-.9-.2-1.2h-.1Z"/>
  </g>
  <path class="cls-12" d="M148,25.5h12.5c4.9,0,8.5,3,8.5,7.1l-21-7.1Z"/>
  <path class="cls-12" d="M169.7,45.3c0,4.5-3.9,7.9-9,7.9h-12.8"/>
  <path class="cls-12" d="M159.2,31.4h-3.9v4.8h3.9c1.6,0,2.6-1,2.6-2.4s-1-2.4-2.6-2.4Z"/>
  <path class="cls-12" d="M162.2,44.4c0-1.5-1.1-2.5-2.7-2.5h-4.1v5h4.1c1.7,0,2.7-1,2.7-2.5Z"/>
  <path class="cls-12" d="M188.5,25.5v27.7h-6.3l-11-15v15h-7.4v-27.7h6.7l10.6,14.5v-14.5h7.4Z"/>
  <g>
    <path class="cls-12" d="M23.7,31.2c0,4.8-4.1,8.4-9.6,8.4H.5V10.1h13.3c5.2,0,9.1,3.2,9.1,7.6s-1.5,5-3.7,6.4c2.8,1.3,4.5,4,4.5,7.2ZM12.4,16.4h-4.1v5.1h4.1c1.7,0,2.7-1,2.7-2.6s-1-2.6-2.7-2.6ZM15.6,30.2c0-1.6-1.2-2.7-2.9-2.7h-4.4v5.4h4.4c1.8,0,2.9-1.1,2.9-2.7Z"/>
    <path class="cls-12" d="M50,10.1v29.5h-6.7l-11.7-16v16h-7.9V10.1h7.1l11.3,15.5v-15.5h7.9Z"/>
  </g>
</svg>