<?xml version="1.0" encoding="utf-8"?>
<!-- Generator: Adobe Illustrator 28.1.0, SVG Export Plug-In . SVG Version: 6.00 Build 0)  -->
<svg version="1.1" id="Layer_1" xmlns="http://www.w3.org/2000/svg" xmlns:xlink="http://www.w3.org/1999/xlink" x="0px" y="0px"
	 viewBox="0 0 250 47.1" style="enable-background:new 0 0 250 47.1;" xml:space="preserve">
<style type="text/css">
	.st0{fill:#DBAE27;}
	.st1{fill:#6D6E70;}
	.st2{fill:none;stroke:#221F1F;stroke-width:0.4783;stroke-miterlimit:10;}
</style>
<g>
	<path class="st0" d="M64.5,31.9c-0.5-0.4-1.1-0.6-1.7-0.8c1.2-0.4,2.2-0.9,3-1.6c1.7-1.4,2.5-3.3,2.5-5.7c0-2.5-0.8-4.5-2.4-5.8
		c-1.6-1.4-4-2-7.1-2H47.1v27.4H52V31.9h5c1,0,1.8,0.2,2.4,0.5c0.7,0.3,1.2,0.9,1.5,1.8l3.5,9.1h5.2l-3.4-8.8
		C65.8,33.3,65.2,32.4,64.5,31.9z M51.9,28v-8.3h6.2c1.9,0,3.3,0.3,4.1,1c0.9,0.7,1.3,1.7,1.3,3.1c0,1.4-0.4,2.4-1.3,3.1
		c-0.9,0.7-2.3,1-4.1,1H51.9z"/>
	<polygon class="st0" points="121.8,35 107,15.9 103.3,15.9 103.3,43.2 108,43.2 108,24.1 122.7,43.2 126.4,43.2 126.4,15.9 
		121.8,15.9 	"/>
	<path class="st0" d="M151.5,22.2c-1.1-2-2.7-3.6-4.8-4.7c-2.1-1.1-4.6-1.6-7.6-1.6H129v27.4h10.1c3,0,5.5-0.5,7.6-1.6
		c2.1-1.1,3.7-2.6,4.8-4.7c1.1-2,1.7-4.5,1.7-7.4C153.2,26.7,152.6,24.2,151.5,22.2z M145.8,36.8c-1.6,1.6-3.9,2.4-7.1,2.4H134V19.9
		h4.8c6.3,0,9.5,3.2,9.5,9.6C148.2,32.8,147.4,35.2,145.8,36.8z"/>
	<path class="st0" d="M191.8,43.2V20h-8.9v-4.1h22.8V20h-8.9v23.3H191.8z"/>
	<path class="st0" d="M207.9,43.2V15.9h18.3v3.9h-13.4v7.6h12.7v3.9h-12.7v8.1h13.4v3.9H207.9z"/>
	<path class="st0" d="M228.8,43.2V15.9h11.9c3,0,5.3,0.7,6.9,2.1c1.6,1.4,2.4,3.4,2.4,5.8c0,2.4-0.8,4.4-2.5,5.8
		c-1.7,1.4-3.9,2.2-6.9,2.2h-6.9v11.4H228.8z M233.8,28h6.3c1.7,0,3-0.4,3.9-1.1c0.9-0.7,1.3-1.7,1.3-3c0-1.3-0.4-2.3-1.3-3.1
		c-0.8-0.7-2.2-1.1-3.9-1.1h-6.3V28z"/>
	<g>
		<g>
			<g id="XMLID_00000003825876611639443420000017695035210814220472_">
				<polygon class="st0" points="42.8,28 23.6,47.1 4.4,28 23.6,8.8 31.7,16.9 35.4,20.6 29.7,20.6 23.6,14.5 12.8,25.2 10.1,28 
					23.6,41.5 33.1,32 19.6,32 15.6,28 				"/>
				<polygon class="st1" points="44.1,20.6 38.4,20.6 23.6,5.7 2.8,26.4 0,23.6 8,15.6 8,6.9 12,6.9 12,11.6 23.6,0 				"/>
			</g>
		</g>
	</g>
	<path class="st0" d="M180.9,32.3c-0.4-0.8-1-1.5-1.9-2.1c-0.8-0.6-1.8-1.1-3.1-1.5c-1.2-0.4-2.5-0.8-4-1.1l0,0
		c-1.4-0.3-2.5-0.6-3.4-1c-0.9-0.3-1.5-0.7-2-1.2c-0.4-0.5-0.6-1.1-0.6-1.8c0-1.2,0.5-2.2,1.5-2.9c1-0.7,2.3-0.8,3.9-0.8h9.2v-4
		h-9.2v0c-2,0-3.8,0.4-5.3,1c-1.6,0.7-2.8,1.6-3.7,2.8c-0.9,1.2-1.3,2.6-1.3,4.2c0,1.1,0.2,2.1,0.6,3c0.4,0.8,1,1.5,1.9,2.1
		c0.8,0.6,1.8,1.1,3.1,1.5c1.2,0.4,2.7,0.8,4.3,1.1l0,0l0,0c1.3,0.3,2.3,0.6,3.2,0.9c0.9,0.3,1.5,0.7,2,1.2c0.4,0.5,0.6,1.1,0.6,1.8
		c0,1.2-0.5,2.2-1.5,2.9c-1,0.7-2.3,0.8-3.9,0.8v0h-9.2v4h9.2v0c2,0,3.7-0.4,5.2-1c1.6-0.7,2.8-1.6,3.7-2.8c0.9-1.2,1.3-2.6,1.3-4.2
		C181.6,34.1,181.3,33.1,180.9,32.3z"/>
	<polygon class="st0" points="88.5,15.9 84.5,15.9 72.1,43.2 77.1,43.2 86.6,21.3 96,43.2 100.9,43.2 	"/>
</g>
</svg>
